<svg width="78" height="78" viewBox="0 0 78 78" fill="none" xmlns="http://www.w3.org/2000/svg">
<path d="M9.75 46.0247V54.7253C9.74995 56.4384 9.7499 57.9165 9.84936 59.1339C9.95434 60.4187 10.1861 61.6967 10.8127 62.9264C11.7475 64.761 13.239 66.2526 15.0736 67.1873C16.3033 67.8139 17.5813 68.0457 18.8662 68.1507C20.0835 68.2501 21.5615 68.2501 23.2747 68.25L54.7253 68.25C56.4385 68.2501 57.9165 68.2501 59.1339 68.1507C60.4187 68.0457 61.6967 67.8139 62.9264 67.1873C64.761 66.2526 66.2526 64.761 67.1873 62.9264C67.8139 61.6967 68.0457 60.4187 68.1507 59.1338C68.2501 57.9165 68.2501 56.4386 68.25 54.7253L68.25 46.0247C68.2501 44.3115 68.2501 42.8335 68.1507 41.6162C68.0457 40.3313 67.8139 39.0533 67.1873 37.8236C66.2526 35.989 64.761 34.4975 62.9264 33.5627C61.6967 32.9361 60.4187 32.7043 59.1339 32.5994C57.9165 32.4999 56.4386 32.4999 54.7255 32.5L23.2748 32.5C21.5616 32.5 20.0835 32.4999 18.8662 32.5994C17.5813 32.7043 16.3033 32.9361 15.0736 33.5627C13.239 34.4975 11.7475 35.989 10.8127 37.8236C10.1861 39.0533 9.95434 40.3313 9.84936 41.6162C9.7499 42.8335 9.74995 44.3116 9.75 46.0247Z" fill="#B1DAFF"/>
<path d="M31.5481 25.0481C30.2789 26.3173 28.2211 26.3173 26.9519 25.0481C25.6827 23.7789 25.6827 21.7211 26.9519 20.4519L36.7019 10.7019C37.9711 9.4327 40.0289 9.4327 41.2981 10.7019L51.0481 20.4519C52.3173 21.7211 52.3173 23.7789 51.0481 25.0481C49.7789 26.3173 47.7211 26.3173 46.4519 25.0481L42.25 20.8462V52C42.25 53.7949 40.7949 55.25 39 55.25C37.2051 55.25 35.75 53.7949 35.75 52V20.8462L31.5481 25.0481Z" fill="#478EFD"/>
</svg>
