<svg width="78" height="78" viewBox="0 0 78 78" fill="none" xmlns="http://www.w3.org/2000/svg">
<path d="M44.0963 39C43.2761 38.9999 42.4773 38.9998 41.8008 39.0551C41.0578 39.1158 40.1812 39.259 39.2991 39.7085C38.076 40.3317 37.0817 41.326 36.4585 42.5491C36.009 43.4312 35.8658 44.3078 35.8051 45.0508C35.7498 45.7273 35.7499 46.5261 35.75 47.3463L35.75 59.9037C35.7499 60.7239 35.7498 61.5228 35.8051 62.1993C35.8658 62.9422 36.009 63.8188 36.4585 64.701C37.0817 65.924 38.076 66.9184 39.2991 67.5416C40.1812 67.991 41.0578 68.1342 41.8008 68.1949C42.4773 68.2502 43.2761 68.2501 44.0964 68.25H59.9036C60.7239 68.2501 61.5227 68.2502 62.1993 68.1949C62.9422 68.1342 63.8188 67.991 64.701 67.5416C65.924 66.9184 66.9184 65.924 67.5416 64.701C67.991 63.8188 68.1342 62.9422 68.1949 62.1993C68.2502 61.5228 68.2501 60.724 68.25 59.9037V47.3463C68.2501 46.5261 68.2502 45.7273 68.1949 45.0508C68.1342 44.3078 67.991 43.4312 67.5416 42.5491C66.9184 41.326 65.924 40.3317 64.701 39.7085C63.8188 39.259 62.9422 39.1158 62.1993 39.0551C61.5228 38.9998 60.724 38.9999 59.9037 39L44.0963 39Z" fill="#478EFD"/>
<path d="M18.0963 9.75001C17.2761 9.74991 16.4773 9.74982 15.8008 9.80509C15.0578 9.86579 14.1812 10.009 13.2991 10.4585C12.076 11.0817 11.0817 12.076 10.4585 13.2991C10.009 14.1812 9.86579 15.0578 9.80509 15.8008C9.74982 16.4773 9.74991 17.2761 9.75001 18.0963L9.75001 24.1537C9.74991 24.9739 9.74982 25.7728 9.80509 26.4493C9.86579 27.1922 10.009 28.0688 10.4585 28.951C11.0817 30.174 12.076 31.1684 13.2991 31.7916C14.1812 32.241 15.0578 32.3842 15.8008 32.4449C16.4773 32.5002 17.2761 32.5001 18.0964 32.5H59.9037C60.7239 32.5001 61.5228 32.5002 62.1993 32.4449C62.9422 32.3842 63.8188 32.241 64.701 31.7916C65.924 31.1684 66.9184 30.174 67.5416 28.951C67.991 28.0688 68.1342 27.1922 68.1949 26.4493C68.2502 25.7729 68.2501 24.9742 68.25 24.1541V18.0963C68.2501 17.2762 68.2502 16.4772 68.1949 15.8008C68.1342 15.0578 67.991 14.1812 67.5416 13.2991C66.9184 12.076 65.924 11.0817 64.701 10.4585C63.8188 10.009 62.9422 9.86579 62.1993 9.80509C61.5228 9.74982 60.724 9.74991 59.9037 9.75001L18.0963 9.75001Z" fill="#B1DAFF"/>
<path d="M18.0963 39C17.2761 38.9999 16.4773 38.9998 15.8008 39.0551C15.0578 39.1158 14.1812 39.259 13.2991 39.7085C12.076 40.3316 11.0817 41.326 10.4585 42.5491C10.009 43.4312 9.86579 44.3078 9.80509 45.0508C9.74982 45.7273 9.74991 46.5261 9.75001 47.3463L9.75001 59.9037C9.74991 60.7239 9.74982 61.5228 9.80509 62.1993C9.86579 62.9422 10.009 63.8188 10.4585 64.701C11.0817 65.924 12.076 66.9184 13.2991 67.5416C14.1812 67.991 15.0578 68.1342 15.8008 68.1949C16.4773 68.2502 17.2761 68.2501 18.0964 68.25H20.9036C21.7239 68.2501 22.5227 68.2502 23.1993 68.1949C23.9422 68.1342 24.8188 67.991 25.701 67.5416C26.924 66.9184 27.9184 65.924 28.5416 64.701C28.991 63.8188 29.1342 62.9422 29.1949 62.1993C29.2502 61.5228 29.2501 60.7239 29.25 59.9037V47.3464C29.2501 46.5261 29.2502 45.7273 29.1949 45.0508C29.1342 44.3078 28.991 43.4312 28.5416 42.5491C27.9184 41.326 26.924 40.3316 25.701 39.7085C24.8188 39.259 23.9422 39.1158 23.1993 39.0551C22.5227 38.9998 21.7239 38.9999 20.9037 39H18.0963Z" fill="#B1DAFF"/>
</svg>
