<svg width="50" height="50" viewBox="0 0 50 50" fill="none" xmlns="http://www.w3.org/2000/svg">
<path fill-rule="evenodd" clip-rule="evenodd" d="M22.3171 1.79653e-06H27.6829C32.2415 -6.5952e-05 35.9159 -0.000120503 38.8058 0.382236C41.8062 0.779209 44.3324 1.62846 46.3388 3.60294C48.3452 5.57742 49.2082 8.0635 49.6116 11.0161C50.0001 13.8601 50.0001 17.4761 50 21.9622V27.2426C50.0001 31.7288 50.0001 35.3448 49.6116 38.1887C49.2082 41.1413 48.3452 43.6274 46.3388 45.6019C44.3324 47.5764 41.8062 48.4256 38.8058 48.8226C35.9159 49.205 32.2415 49.2049 27.6828 49.2048H22.3172C17.7585 49.2049 14.0841 49.205 11.1942 48.8226C8.1938 48.4256 5.66756 47.5764 3.66117 45.6019C1.65478 43.6274 0.791801 41.1413 0.388413 38.1887C-0.00012245 35.3448 -6.70178e-05 31.7288 1.82556e-06 27.2427V21.9622C-6.70178e-05 17.476 -0.00012245 13.8601 0.388413 11.0161C0.791801 8.0635 1.65478 5.57742 3.66117 3.60294C5.66756 1.62846 8.19381 0.779209 11.1942 0.382236C14.0841 -0.000120503 17.7585 -6.5952e-05 22.3171 1.79653e-06ZM11.8604 5.25884C9.41449 5.58246 8.11925 6.17438 7.1967 7.08225C6.27416 7.99012 5.67267 9.26476 5.34383 11.6718C5.00531 14.1496 5 17.4335 5 22.1422V27.0627C5 31.7713 5.00531 35.0553 5.34383 37.5331C5.67267 39.9401 6.27416 41.2147 7.1967 42.1226C8.11925 43.0305 9.41448 43.6224 11.8604 43.946C14.3782 44.2791 17.7153 44.2844 22.5 44.2844H27.5C32.2847 44.2844 35.6218 44.2791 38.1396 43.946C40.5855 43.6224 41.8808 43.0305 42.8033 42.1226C43.7258 41.2147 44.3273 39.9401 44.6562 37.5331C44.9947 35.0553 45 31.7713 45 27.0627V22.1422C45 17.4336 44.9947 14.1496 44.6562 11.6718C44.3273 9.26476 43.7258 7.99012 42.8033 7.08225C41.8808 6.17438 40.5855 5.58246 38.1396 5.25884C35.6218 4.92571 32.2847 4.92049 27.5 4.92049H22.5C17.7153 4.92049 14.3782 4.92571 11.8604 5.25884Z" fill="#EF7A61"/>
<path fill-rule="evenodd" clip-rule="evenodd" d="M42 27.4402L41.9506 27.3898C41.0044 26.4235 40.1881 25.59 39.4594 24.9629C38.6898 24.3006 37.8519 23.7182 36.8193 23.4C35.4468 22.9772 33.9828 22.9772 32.6103 23.4C31.5777 23.7182 30.7398 24.3006 29.9702 24.9629C29.2415 25.59 28.4252 26.4235 27.479 27.3898L27.4097 27.4605C26.6645 28.2214 26.2259 28.6656 25.8856 28.9529L25.8366 28.9937L25.806 28.9373C25.5945 28.5415 25.3488 27.9627 24.9337 26.9736L24.804 26.6646L24.7503 26.5368L24.7503 26.5367C23.8858 24.4769 23.1599 22.7474 22.4415 21.4439C21.7013 20.1008 20.779 18.8413 19.3412 18.1053C18.142 17.4915 16.8001 17.2276 15.4634 17.3428C13.8608 17.4808 12.5463 18.3005 11.3705 19.2668C10.3861 20.0759 9.28118 21.1772 8 22.4818V25.9883C8 27.2697 8.00073 28.4306 8.00749 29.4876L10.7128 26.7253C12.3865 25.0163 13.5042 23.8799 14.4161 23.1304C15.3168 22.3901 15.7044 22.2993 15.8718 22.2849C16.3174 22.2465 16.7647 22.3344 17.1644 22.539C17.3147 22.616 17.6415 22.8473 18.2085 23.8762C18.7826 24.9178 19.4071 26.3969 20.3395 28.6183L20.4692 28.9273L20.5088 29.0219C20.8705 29.8837 21.2064 30.6844 21.5418 31.3121C21.8932 31.97 22.4035 32.7582 23.2631 33.3014C24.2766 33.942 25.4853 34.1796 26.6592 33.9693C27.6549 33.7908 28.4155 33.2526 28.981 32.775C29.5207 32.3193 30.1238 31.7034 30.773 31.0403L30.7731 31.0403L30.8443 30.9676C31.8794 29.9106 32.5492 29.2297 33.1004 28.7554C33.6283 28.3011 33.8774 28.1902 34.0133 28.1483C34.4708 28.0074 34.9588 28.0074 35.4163 28.1483C35.5522 28.1902 35.8013 28.3011 36.3292 28.7554C36.8804 29.2297 37.5502 29.9106 38.5853 30.9676L41.865 34.3164C41.9768 32.5362 41.9966 30.3231 42 27.4402Z" fill="#EF7A61"/>
<path d="M40 13.7773C40 15.9514 38.433 17.7139 36.5 17.7139C34.567 17.7139 33 15.9514 33 13.7773C33 11.6033 34.567 9.84082 36.5 9.84082C38.433 9.84082 40 11.6033 40 13.7773Z" fill="#EF7A61"/>
</svg>
