<svg width="573" height="485" viewBox="0 0 573 485" fill="none" xmlns="http://www.w3.org/2000/svg">
<path d="M165.875 255.738C165.875 116.7 278.588 3.9873 417.626 3.9873C425.251 3.9873 431.432 10.1683 431.432 17.793V456.949C431.432 471.924 419.293 484.063 404.318 484.063H190.833C177.049 484.063 165.875 472.889 165.875 459.105V255.738Z" fill="#EEF9FE"/>
<path d="M417.522 452.742C417.98 452.763 418.433 452.643 418.821 452.399C419.208 452.154 419.511 451.796 419.688 451.374C419.865 450.951 419.908 450.485 419.81 450.038C419.712 449.591 419.48 449.184 419.143 448.873C419.086 448.65 419.046 448.489 418.99 448.265C419.01 448.217 419.03 448.168 419.05 448.119C419.512 447.031 420.285 446.104 421.273 445.453C422.262 444.802 423.42 444.457 424.604 444.462C425.788 444.466 426.944 444.819 427.927 445.478C428.911 446.136 429.677 447.069 430.131 448.16C431.943 452.516 434.25 456.88 434.818 461.485C435.068 463.521 434.963 465.585 434.506 467.585C438.763 458.318 440.973 448.247 440.987 438.054C440.988 435.496 440.846 432.94 440.561 430.398C440.325 428.314 439.998 426.245 439.58 424.19C437.299 413.044 432.401 402.596 425.288 393.706C421.845 391.832 419.061 388.949 417.311 385.447C416.677 384.188 416.229 382.844 415.98 381.457C416.369 381.507 416.764 381.539 417.152 381.565C417.273 381.571 417.4 381.577 417.521 381.584L417.567 381.586C417.994 381.605 418.417 381.5 418.786 381.285C419.154 381.07 419.453 380.753 419.645 380.372C419.837 379.991 419.915 379.563 419.869 379.139C419.824 378.715 419.656 378.314 419.387 377.982C419.219 377.777 419.051 377.571 418.884 377.365C418.629 377.047 418.368 376.736 418.113 376.418C418.084 376.388 418.056 376.356 418.03 376.323C417.738 375.961 417.445 375.605 417.152 375.243C417.686 374.415 418.405 373.721 419.253 373.216C422.188 371.501 426.237 372.689 428.357 375.338C430.483 377.988 430.884 381.704 430.145 385.015C429.419 387.831 428.218 390.504 426.593 392.918C426.752 393.122 426.918 393.319 427.077 393.522C429.986 397.256 432.522 401.265 434.648 405.492C434.131 400.756 434.748 395.966 436.448 391.514C438.171 387.366 441.401 383.872 444.245 380.285C447.661 375.978 454.667 377.858 455.269 383.318C455.275 383.371 455.28 383.424 455.286 383.477C454.863 383.715 454.45 383.967 454.045 384.234C453.537 384.573 453.143 385.058 452.915 385.624C452.688 386.19 452.636 386.811 452.769 387.407C452.901 388.003 453.21 388.545 453.656 388.962C454.102 389.379 454.664 389.652 455.269 389.745L455.33 389.754C455.18 391.274 454.914 392.78 454.535 394.259C453.436 398.389 451.494 402.247 448.831 405.593C446.167 408.938 442.84 411.698 439.058 413.701C438.81 413.828 438.568 413.955 438.32 414.075C440.455 420.116 441.795 426.408 442.305 432.793C442.594 436.56 442.577 440.344 442.254 444.108L442.273 443.975C443.088 439.789 445.326 436.012 448.608 433.282C453.482 429.286 460.369 427.814 465.628 424.602C466.187 424.244 466.837 424.053 467.501 424.051C468.165 424.049 468.816 424.237 469.377 424.593C469.938 424.948 470.385 425.456 470.666 426.057C470.946 426.657 471.049 427.326 470.962 427.983C470.955 428.03 470.948 428.076 470.94 428.123C470.157 428.442 469.393 428.809 468.655 429.222C468.233 429.46 467.819 429.713 467.414 429.979C466.906 430.318 466.512 430.803 466.284 431.369C466.057 431.935 466.006 432.557 466.138 433.152C466.27 433.748 466.579 434.29 467.025 434.707C467.472 435.124 468.034 435.397 468.638 435.49L468.7 435.499C468.744 435.506 468.782 435.512 468.827 435.519C467.487 438.71 465.607 441.648 463.269 444.204C460.381 447.297 456.89 449.769 453.01 451.468C449.13 453.166 444.944 454.057 440.707 454.083H440.701C439.551 459.071 437.884 463.926 435.729 468.569H417.967C417.903 468.372 417.846 468.169 417.788 467.972C419.433 468.075 421.083 467.977 422.703 467.68C421.385 466.066 420.068 464.44 418.75 462.826C418.72 462.796 418.693 462.764 418.667 462.73C417.999 461.905 417.324 461.085 416.655 460.259L416.655 460.258C416.619 457.726 416.91 455.2 417.521 452.743L417.522 452.742Z" fill="white"/>
<path d="M357.994 111.88C357.994 123.823 363.98 135.975 375.947 135.975C387.913 135.975 404.423 127.326 400.709 108.791C398.362 97.0809 391.627 90.2568 379.661 90.2568V133.504C383.946 133.504 388.135 132.236 391.699 129.86C395.262 127.484 398.039 124.107 399.679 120.155C401.319 116.204 401.748 111.856 400.912 107.662C400.076 103.467 398.012 99.6144 394.982 96.5903C391.952 93.5661 388.091 91.5067 383.888 90.6723C379.685 89.838 375.329 90.2662 371.369 91.9028C367.41 93.5395 364.026 96.311 361.646 99.867C359.265 103.423 357.994 107.604 357.994 111.88Z" fill="#2F2E41"/>
<path d="M408.193 282.506C407.541 281.784 407.055 280.928 406.771 279.999C406.486 279.069 406.409 278.089 406.544 277.127C406.68 276.164 407.026 275.243 407.557 274.428C408.088 273.614 408.792 272.925 409.619 272.411L404.38 249.371L415.894 253.695L419.103 274.911C419.876 276.354 420.092 278.03 419.71 279.621C419.327 281.213 418.373 282.609 417.028 283.545C415.684 284.481 414.041 284.892 412.413 284.701C410.785 284.509 409.283 283.728 408.193 282.506V282.506Z" fill="#FFB6B6"/>
<path d="M383.752 200.841L391.789 201.657C391.789 201.657 389.687 213.538 392.974 216.214C396.26 218.89 394.936 218.878 394.916 220.861C394.897 222.844 396.191 226.163 398.821 228.171C401.452 230.18 406.923 265.954 406.923 265.954L418.847 266.068C418.491 262.991 418.521 259.882 418.936 256.813C419.643 252.191 423.217 240.55 421.911 238.554C420.605 236.558 421.292 232.888 421.331 228.921C421.369 224.954 415.683 229.337 415.746 222.726C415.81 216.115 408.517 174.631 409.237 168.687C409.956 162.743 402.72 157.385 402.72 157.385L396.096 157.321L383.752 200.841Z" fill="#B1DAFF"/>
<path d="M298.438 145.048C298.238 145.947 298.237 146.879 298.437 147.778C298.636 148.677 299.031 149.522 299.592 150.252C300.154 150.983 300.87 151.581 301.689 152.006C302.507 152.431 303.409 152.671 304.331 152.71L310.778 174.151L318.254 165.226L310.986 146.234C310.949 144.684 310.344 143.201 309.285 142.067C308.226 140.932 306.786 140.225 305.24 140.079C303.693 139.933 302.146 140.358 300.893 141.274C299.639 142.19 298.766 143.533 298.438 145.048V145.048Z" fill="#FFB6B6"/>
<path d="M366.501 152.032C366.501 152.032 350.916 146.2 342.466 178.137L331.249 189.731L321.826 172.737L323.072 168.706L315.789 152.228L303.302 159.38L306.376 170.693L305.856 176.285L308.84 179.763L313.725 197.741L316.78 203.614C316.78 203.614 320.634 211.134 327.36 212.373C329.154 212.708 330.988 212.76 332.798 212.527C336.34 212.065 340.222 210.436 344.212 206.84C359.012 193.499 367.766 183.207 367.766 183.207L366.501 152.032Z" fill="#B1DAFF"/>
<path d="M291.364 158.824L319.109 132.102C319.26 131.956 319.349 131.758 319.359 131.549C319.368 131.339 319.296 131.134 319.158 130.976C319.021 130.817 318.827 130.718 318.618 130.697C318.409 130.677 318.2 130.737 318.034 130.866L288.616 153.739L291.364 158.824Z" fill="#2F2E41"/>
<path d="M279.939 161.786C281.331 162.274 282.775 162.596 284.243 162.746C284.989 162.819 285.738 162.845 286.481 162.854C286.742 162.863 287.006 162.864 287.265 162.867C287.882 162.876 288.5 162.886 289.123 162.893C289.648 162.903 290.179 162.911 290.702 162.915C291.472 162.927 292.318 162.911 292.87 162.371C293.104 162.099 293.274 161.778 293.368 161.432C293.462 161.086 293.478 160.724 293.415 160.371C293.293 159.633 293.069 158.916 292.75 158.239C292.084 156.64 291.413 155.043 290.747 153.445L290.851 152.55C289.629 152.373 288.385 152.412 287.176 152.663C286.682 152.788 286.219 153.013 285.814 153.322C285.409 153.631 285.071 154.019 284.82 154.462C284.715 154.661 284.631 154.871 284.57 155.088C284.31 156.04 284.497 157.098 284.385 158.094C284.36 158.302 284.321 158.507 284.27 158.71C284.127 159.309 283.854 159.87 283.469 160.352C283.084 160.833 282.597 161.224 282.043 161.496C281.383 161.787 280.654 161.887 279.939 161.786Z" fill="#CFCFDE"/>
<path d="M277.987 161.011C278.566 161.421 279.235 161.687 279.938 161.786C279.275 161.56 278.624 161.302 277.987 161.011Z" fill="white"/>
<path d="M279.938 161.786C281.329 162.274 282.774 162.596 284.241 162.746C284.988 162.819 285.737 162.845 286.48 162.854C286.74 162.863 287.005 162.864 287.263 162.867C287.881 162.876 288.498 162.886 289.121 162.893C289.091 162.58 289.044 162.27 288.981 161.963C288.399 159.095 286.708 156.656 284.819 154.462C284.713 154.661 284.63 154.871 284.569 155.088C284.308 156.04 284.496 157.098 284.384 158.094C284.358 158.302 284.32 158.507 284.269 158.71C284.126 159.309 283.852 159.87 283.467 160.351C283.082 160.833 282.595 161.224 282.042 161.496C281.381 161.786 280.652 161.887 279.938 161.786Z" fill="#B1DAFF"/>
<path d="M387.406 205.509L388.508 210.753L389.445 230.093L351.784 225.004L348.893 202.609L352.89 196.054L387.406 205.509Z" fill="#FFB6B6"/>
<path d="M359.55 126.407C354.828 117.786 358.002 106.978 366.64 102.266C375.278 97.5534 386.108 100.722 390.829 109.342C395.551 117.962 392.377 128.77 383.739 133.483C375.101 138.195 364.272 135.027 359.55 126.407Z" fill="#FFB6B6"/>
<path d="M402.044 181.408L406.945 168.699C406.948 163.379 405.144 158.215 401.827 154.049C398.511 149.884 393.878 146.963 388.685 145.762L388.617 145.747L385.093 141.007L370.773 142.437L368.149 147.79L357.773 153.956L345.972 167.746C342.256 170.41 340.048 173.825 339.409 177.897C338.053 186.543 344.119 195.195 344.84 196.186L346.699 206.636L389.685 212.783L390.013 212.825L402.044 181.408Z" fill="#B1DAFF"/>
<path d="M393.845 122.537C393.683 122.512 393.521 122.478 393.36 122.453C390.58 121.96 387.799 121.477 385.028 120.976L384.772 114.706L381.414 120.323C373.753 122.86 366.586 121.426 359.843 118.261C357.619 117.207 355.461 116.02 353.381 114.706C351.931 105.873 355.59 98.9119 364.987 98.0233C365.279 97.9957 365.489 97.7518 365.744 97.6244C365.745 97.6245 365.746 97.6242 365.747 97.6238C365.748 97.6234 365.749 97.6228 365.75 97.622C365.751 97.6212 365.751 97.6202 365.752 97.6192C365.752 97.6182 365.753 97.6171 365.752 97.6159C366.186 97.4123 366.628 97.2171 367.07 97.039C370.532 95.689 374.306 95.3471 377.954 96.0531C381.603 96.759 384.975 98.4839 387.68 101.027C393.122 106.212 395.57 114.773 393.845 122.537Z" fill="#2F2E41"/>
<path d="M361.152 424.501L350.927 429.19L327.937 392.058L343.029 385.137L361.152 424.501Z" fill="#FFB6B6"/>
<path d="M361.37 418.303L344.762 424.754L347.944 431.665L337.453 449.306C336.935 450.177 336.71 451.191 336.809 452.199C336.909 453.207 337.33 454.157 338.009 454.91C338.688 455.663 339.591 456.18 340.585 456.385C341.579 456.59 342.613 456.472 343.536 456.049L362.78 447.223L362.949 438.865L367.392 445.108L374.648 441.78L361.37 418.303Z" fill="#2F2E41"/>
<path d="M405.854 447.539H394.6L389.246 404.219L405.855 404.22L405.854 447.539Z" fill="#FFB6B6"/>
<path d="M411.971 358.648L411.972 358.532L407.745 351.262L412.061 341.799L412.367 284.286C414.068 242.725 389.907 222.746 389.717 222.549L389.193 222.006L350.446 221.06C350.446 221.06 330.081 280.724 313.902 334.485C312.946 337.662 310.242 340.796 311.083 343.941C317.754 368.892 325.672 397.132 330.754 397.929L346.85 389.28L343.858 346.038L345.697 341.332C348.992 340.726 357.557 307.553 357.557 307.553C358.993 305.852 358.919 301.227 358.919 301.227L370.138 289.472L380.478 343.655L377.921 359.816L380.037 365.373L389.099 411.249L389.195 411.988L406.279 410.286L411.971 358.648Z" fill="#2F2E41"/>
<path d="M409.663 441.999L391.873 440.939V448.546L374.96 460.204C374.125 460.779 373.496 461.606 373.165 462.564C372.833 463.522 372.818 464.56 373.12 465.527C373.422 466.495 374.026 467.34 374.844 467.941C375.662 468.541 376.65 468.865 377.665 468.865H398.845L402.495 461.341L403.921 468.865H411.906L409.663 441.999Z" fill="#2F2E41"/>
<path d="M387.015 97.1745V97.1895C387.012 98.1206 387.131 99.048 387.369 99.9484C387.406 100.106 387.451 100.272 387.504 100.43V100.437C388.01 102.045 388.881 103.515 390.051 104.73C391.221 105.946 392.656 106.874 394.246 107.443C394.479 107.534 394.72 107.609 394.962 107.676C395.469 107.823 395.988 107.929 396.513 107.992C396.985 108.059 397.461 108.092 397.937 108.09C398.309 108.092 398.681 108.074 399.052 108.037C399.919 107.95 400.771 107.755 401.59 107.458C401.719 107.421 401.844 107.376 401.967 107.323C402.029 107.301 402.089 107.276 402.148 107.248C403.514 106.677 404.75 105.835 405.781 104.773C406.811 103.711 407.615 102.451 408.142 101.069C408.67 99.6878 408.911 98.2137 408.85 96.7365C408.79 95.2593 408.429 93.8098 407.79 92.476L407.782 92.4685C407.247 91.3495 406.52 90.332 405.635 89.4614C403.662 87.4994 402.792 82.5822 399.794 82.5822C399.651 82.5797 399.508 82.5847 399.365 82.5972C397.354 82.6648 393.636 86.9957 392.054 88.0181C390.879 88.7588 389.861 89.7216 389.056 90.8522C388.216 92.0153 387.616 93.3341 387.293 94.7312C387.108 95.5326 387.015 96.3522 387.015 97.1745Z" fill="#2F2E41"/>
<path d="M400.361 93.3788C402.057 95.3496 404.713 96.1157 407.108 97.1413C411.337 98.9925 415.049 101.845 417.922 105.452C420.796 109.058 422.745 113.31 423.6 117.838C424.263 121.527 424.176 125.345 425.222 128.94C426.262 132.536 428.837 136.064 432.533 136.688C435.034 137.114 437.541 136.15 439.894 135.199C441.188 134.68 442.481 134.159 443.775 133.636C442.426 130.256 441.078 126.877 439.733 123.497C441.895 126.687 444.41 129.623 447.23 132.252C451.866 130.386 456.507 128.52 461.152 126.654C449.725 126.698 451.675 115.626 449.118 104.518C447.713 98.414 435.746 94.2808 433.4 88.4733C432.132 85.3234 429.987 82.6018 427.217 80.6308C424.448 78.6598 421.171 77.5218 417.774 77.3515C414.377 77.1812 411.002 77.9857 408.049 79.6699C405.095 81.354 402.687 83.8473 401.11 86.8546C398.764 87.7876 398.695 91.4327 400.361 93.3788Z" fill="#2F2E41"/>
<path d="M351.821 223.783C349.192 224.467 346.767 225.775 344.753 227.596C342.739 229.416 341.195 231.696 340.254 234.24C339.745 235.703 339.428 237.437 340.302 238.829C340.569 239.327 341.008 239.713 341.538 239.913C342.068 240.114 342.653 240.116 343.184 239.919C344.326 239.45 345.112 238.285 345.692 237.253C346.461 235.795 347.122 234.282 347.67 232.727C348.566 230.38 350.479 226.464 347.748 224.629C345.451 223.086 342.41 223.686 339.826 223.58C337.033 223.466 333.929 222.398 332.937 219.509C331.972 216.7 334.234 214.058 336.673 212.989C338.139 212.383 339.732 212.144 341.312 212.294C342.892 212.444 344.411 212.979 345.736 213.851C348.355 215.663 350.225 218.362 350.998 221.447C351.054 221.681 351.017 221.927 350.894 222.134C350.772 222.341 350.573 222.493 350.341 222.557C350.109 222.621 349.861 222.592 349.649 222.477C349.438 222.362 349.279 222.169 349.207 221.94C348.44 219.146 346.782 216.517 344.194 215.086C341.771 213.745 338.447 213.663 336.186 215.398C335.068 216.256 334.19 217.684 334.763 219.103C335.288 220.404 336.657 221.178 337.96 221.493C340.906 222.204 343.988 221.284 346.925 222.223C349.726 223.118 351.34 225.405 350.936 228.371C350.63 230.038 350.135 231.665 349.461 233.22C348.887 234.818 348.217 236.381 347.454 237.898C346.288 240.098 344.185 242.479 341.411 241.834C338.248 241.099 337.498 237.414 338.175 234.704C339.721 228.524 345.267 223.575 351.328 221.995C351.562 221.94 351.809 221.977 352.016 222.099C352.224 222.221 352.375 222.419 352.439 222.651C352.503 222.883 352.475 223.13 352.359 223.341C352.244 223.553 352.051 223.711 351.821 223.783Z" fill="#2F2E41"/>
<path d="M324.03 392.581C325.343 391.032 327.216 390.086 329.035 389.182L344.304 381.591L344.739 384.296C345.316 382.517 348.15 382.386 349.298 383.863C350.447 385.34 350.08 387.573 348.959 389.071C347.839 390.57 346.138 391.505 344.49 392.395C340.837 394.368 337.184 396.341 333.53 398.315C331.828 399.234 330.071 400.171 328.148 400.381C326.224 400.591 324.069 399.899 323.11 398.221C322.103 396.458 322.717 394.131 324.03 392.581Z" fill="#2F2E41"/>
<path d="M383.425 406.715C385.293 405.913 387.392 405.902 389.425 405.904C395.111 405.908 400.797 405.913 406.483 405.917L405.662 408.531C406.974 407.197 409.568 408.343 409.935 410.176C410.302 412.01 408.974 413.843 407.301 414.685C405.628 415.526 403.687 415.605 401.815 415.667C397.663 415.804 393.511 415.941 389.36 416.079C387.425 416.143 385.434 416.198 383.619 415.528C381.804 414.859 380.185 413.279 380.078 411.351C379.966 409.325 381.557 407.516 383.425 406.715Z" fill="#2F2E41"/>
<path d="M287.551 287.188C312.569 287.188 339.756 282.212 366.759 272.645C400.153 260.814 430.772 242.957 455.305 221.002L454.578 219.548C430.163 241.396 399.68 259.172 366.425 270.954C336.372 281.601 306.094 286.535 278.875 285.233L278.828 286.981C281.703 287.119 284.61 287.188 287.551 287.188Z" fill="white"/>
<path d="M511.68 196.071C531.726 169.663 523.776 139.523 535.52 118.496C580.53 37.9085 525.107 45.3332 462.445 61.0049L462.296 62.7434C502.178 68.8858 528.406 89.3702 534.256 118.944C538.803 141.928 530.46 168.876 510.763 194.825L511.68 196.071Z" fill="white"/>
<path d="M318.274 289.812C343.292 289.812 372.044 262.105 397.482 275.27C474.502 315.127 463.9 248.432 486.027 223.627L485.301 222.173C460.886 244.021 430.403 261.797 397.148 273.578C367.095 284.226 336.817 289.159 309.598 287.858L309.551 289.605C312.425 289.744 315.333 289.813 318.274 289.812Z" fill="white"/>
<path d="M260.884 278.81L261.302 277.152C238.927 267.028 240.85 236.874 220.831 229.988C68.3356 177.533 218.865 171.617 252.724 143.871C283.002 119.059 316.001 90.2114 357.938 75.3541L357.603 73.6626C315.483 88.5853 277.936 113.045 251.88 142.535C225.693 172.174 214.217 203.391 219.567 230.435C223.786 251.762 238.073 268.489 260.884 278.81Z" fill="white"/>
<path d="M466.337 290.543C493.267 246.602 529.045 207.352 573 183.954L571.911 182.986C552.423 222.271 514.741 259.9 465.807 288.944L466.337 290.543Z" fill="white"/>
<path d="M293.498 341.091C298.568 341.091 303.725 340.939 308.969 340.636L308.913 338.888C270.236 360.849 235.734 355.626 209.058 320.761L208.569 322.384C231.42 334.707 260.546 341.091 293.498 341.091Z" fill="white"/>
<path d="M285.571 324.363C282.683 324.363 280.342 321.23 280.342 317.365C280.342 313.5 282.683 310.367 285.571 310.367C288.459 310.367 290.801 313.5 290.801 317.365C290.801 321.23 288.459 324.363 285.571 324.363Z" fill="#FD6584"/>
<path d="M462.236 196.335C461.802 193.485 464.555 190.704 468.384 190.124C472.213 189.544 475.668 191.384 476.102 194.234C476.535 197.083 473.783 199.864 469.954 200.444C466.125 201.024 462.669 199.184 462.236 196.335Z" fill="white"/>
<path d="M486.31 120.401C483.421 120.401 481.08 117.268 481.08 113.403C481.08 109.538 483.421 106.404 486.31 106.404C489.198 106.404 491.539 109.538 491.539 113.403C491.539 117.268 489.198 120.401 486.31 120.401Z" fill="white"/>
<path d="M474.429 160.481C481.249 150.995 494.121 146.093 503.18 149.532C512.239 152.972 514.053 163.449 507.233 172.935C500.413 182.421 480.338 197.343 471.279 193.903C462.22 190.464 467.609 169.967 474.429 160.481ZM474.387 189.658C475.502 191.289 478.238 191.365 480.498 189.827C482.757 188.289 483.685 185.719 482.57 184.088C481.455 182.456 478.719 182.381 476.46 183.919C474.2 185.457 473.272 188.026 474.387 189.658Z" fill="#2F2E41"/>
<path d="M482.127 169.76C482.976 170.445 483.825 171.131 484.675 171.816C485.717 172.775 486.951 173.503 488.296 173.952C490.142 174.378 492.072 174.263 493.855 173.622C496.454 172.784 498.731 171.169 500.379 168.995L498.543 169.404C499.517 168.278 500.309 167.008 500.89 165.639C501.321 164.368 501.081 163.079 499.918 162.731C498.588 162.332 496.446 163.228 495.329 162.584C493.398 161.471 496.573 157.325 494.813 156.046C493.788 155.301 491.736 156.038 490.025 156.769C487.898 157.578 485.881 158.653 484.024 159.967C480.986 162.309 479.304 166 480.544 168.136C480.969 168.769 481.505 169.319 482.127 169.76Z" fill="#B1DAFF"/>
<path d="M482.752 176.874C484.238 177.077 485.956 175.937 487.389 174.886L487.754 174.409C488.053 173.497 488.178 172.537 488.125 171.579C488.091 171.135 487.907 170.715 487.603 170.389C487.299 170.064 486.893 169.85 486.451 169.785C485.58 169.67 484.417 170.045 483.842 169.542C482.729 168.57 485.31 165.888 484.13 164.978C483.468 164.467 482.061 165.122 481.454 166C480.959 166.819 480.73 167.771 480.8 168.725C480.78 170.125 480.76 171.526 480.741 172.927C480.678 173.754 480.762 174.585 480.988 175.383C481.113 175.772 481.344 176.117 481.656 176.381C481.968 176.644 482.348 176.815 482.752 176.874Z" fill="#2F2E41"/>
<path d="M482.381 181.541C484.44 180.934 487.579 178.817 490.253 176.947L491.05 176.256C491.883 175.312 492.59 174.264 493.151 173.137C493.46 172.294 493.063 171.801 491.696 172.209C490.486 172.569 488.58 173.594 488.016 173.392C486.927 173.001 492.176 168.823 490.954 168.534C490.268 168.371 487.851 169.818 486.48 171.056C485.47 171.949 484.637 173.023 484.021 174.221C483.22 175.674 482.419 177.128 481.618 178.581C481.134 179.307 480.797 180.12 480.625 180.975C480.609 181.593 481.132 181.909 482.381 181.541Z" fill="#FD6584"/>
<path d="M190.957 68.1369C190.149 57.9324 183.382 69.9736 173.157 70.7797C170.725 70.9704 168.355 71.6375 166.181 72.7428C164.007 73.848 162.073 75.3699 160.489 77.2213C158.905 79.0727 157.702 81.2175 156.948 83.5331C156.195 85.8488 155.906 88.2898 156.098 90.7169C156.29 93.144 156.96 95.5095 158.068 97.6783C159.176 99.8471 160.702 101.777 162.558 103.357C164.414 104.937 166.563 106.137 168.884 106.888C171.204 107.639 173.65 107.926 176.082 107.734C186.307 106.927 191.764 78.3415 190.957 68.1369Z" fill="#B1DAFF"/>
<path d="M127.298 166.117C127.106 163.691 126.437 161.326 125.329 159.157C124.221 156.989 122.696 155.06 120.841 153.479C118.986 151.899 116.837 150.699 114.518 149.948C112.198 149.196 109.752 148.908 107.321 149.1C97.0961 149.906 90.2562 129.641 91.0639 139.846C91.8717 150.05 100.021 186.86 110.246 186.054C112.678 185.862 115.047 185.194 117.22 184.089C119.393 182.983 121.326 181.461 122.909 179.61C124.493 177.758 125.695 175.614 126.448 173.299C127.201 170.984 127.49 168.543 127.298 166.117Z" fill="#B1DAFF"/>
<path d="M103.991 188.452C106.787 189.797 110.016 189.004 112.43 187.228C115.175 185.208 116.528 181.995 116.975 178.698C117.406 175.16 117.109 171.572 116.105 168.152C115.151 164.853 113.106 161.429 109.452 160.748C107.017 160.295 104.419 161.331 103.744 163.855C103.487 164.867 103.497 165.928 103.77 166.936C104.044 167.943 104.574 168.864 105.308 169.608C107.493 171.703 111.001 171.544 113.539 170.212C116.524 168.646 118.172 165.512 118.715 162.289C119.361 158.458 118.459 154.609 117.174 151.005C115.778 147.088 114.039 143.288 112.442 139.45C109.328 131.965 106.402 124.319 105.162 116.271C103.267 103.975 106.217 89.383 117.019 81.8562C122.849 77.793 130.162 76.642 137.119 77.5165C144.455 78.4388 151.196 81.6514 157.166 85.9053C160.272 88.1577 163.221 90.6172 165.993 93.2669C166.834 94.1295 167.912 94.7231 169.092 94.9725C170.271 95.2219 171.498 95.1157 172.617 94.6675C178.357 92.3357 176.528 83.0127 170.61 82.3181C167.921 82.0025 165.152 83.4996 163.328 85.3703C161.339 87.4934 160.04 90.1682 159.604 93.0424C158.592 99.0919 160.839 105.487 164.743 110.111C169.153 115.335 175.856 118.276 182.38 119.825C189.808 121.589 197.449 121.679 205.042 121.846C212.812 122.018 220.674 122.312 228.174 124.537C234.211 126.346 239.906 129.139 245.029 132.803C255.351 140.12 263.075 150.523 267.086 162.507C268.029 165.406 268.726 168.379 269.172 171.394C269.347 172.575 267.495 172.716 267.32 171.54C265.368 158.397 258.237 146.31 248.214 137.657C243.214 133.321 237.49 129.894 231.302 127.532C223.85 124.711 215.934 123.995 208.025 123.765C199.947 123.529 191.796 123.657 183.839 122.043C176.804 120.617 169.681 117.818 164.555 112.635C160.036 108.064 157.24 101.526 157.54 95.0643C157.819 89.0517 161.137 82.6226 167.284 80.8359C170.169 79.9975 173.265 80.5309 175.407 82.7284C176.598 83.9813 177.418 85.539 177.776 87.2286C178.134 88.9181 178.015 90.6736 177.434 92.3003C176.668 94.0676 175.271 95.4873 173.514 96.2831C171.757 97.0789 169.766 97.1938 167.929 96.6055C166.58 96.111 165.362 95.3161 164.367 94.2813C158.562 88.8572 152.067 83.8796 144.509 81.1786C137.46 78.6593 129.351 78.1426 122.336 81.048C109.057 86.5486 105.067 102.512 106.923 115.515C108.138 124.025 111.366 132.083 114.668 139.966C116.354 143.991 118.229 147.991 119.519 152.165C120.675 155.903 121.255 159.914 120.308 163.765C119.48 167.126 117.522 170.215 114.39 171.843C111.544 173.322 107.934 173.577 105.146 171.818C101.116 169.276 100.209 162.254 104.736 159.696C107.74 157.998 111.586 158.832 114.077 161.062C116.87 163.561 118.01 167.305 118.586 170.887C119.674 177.657 118.819 185.993 112.119 189.614C109.359 191.106 106.068 191.509 103.183 190.121C102.97 190.009 102.808 189.819 102.733 189.59C102.658 189.362 102.674 189.113 102.779 188.897C102.884 188.68 103.069 188.513 103.295 188.43C103.521 188.347 103.771 188.355 103.991 188.452V188.452Z" fill="#2F2E41"/>
<path d="M269.549 166.677C268.693 155.856 283.529 126.922 277.146 119.089C276.355 118.111 275.524 117.164 274.655 116.249C271.841 113.254 268.675 110.609 265.226 108.372C264.643 107.984 264.054 107.615 263.461 107.259C261.354 106.004 259.16 104.899 256.896 103.953C256.486 103.787 256.069 103.621 255.652 103.456C244.238 99.0482 231.627 98.8249 220.064 102.826C208.5 106.827 198.734 114.792 192.503 125.305C186.272 135.818 183.981 148.196 186.037 160.236C188.092 172.277 194.362 183.199 203.729 191.06C204.222 191.479 204.726 191.886 205.242 192.285C210.363 196.275 216.193 199.262 222.426 201.088C222.432 201.087 222.433 201.094 222.439 201.093C231.786 203.817 241.712 203.861 251.083 201.221L251.095 201.22C251.302 201.16 251.508 201.101 251.714 201.035C274.634 194.276 271.507 191.405 269.549 166.677Z" fill="#B1DAFF"/>
<path d="M256.922 104.186C256.923 104.108 256.915 104.029 256.897 103.953C256.486 103.787 256.07 103.622 255.653 103.456C255.478 103.526 255.329 103.647 255.225 103.804C255.121 103.96 255.067 104.145 255.07 104.332C255.067 105.269 254.96 106.202 254.75 107.116C252.956 115.041 244.826 119.661 237.568 121.64C228.688 124.069 219.146 124.102 210.862 128.492C207.458 130.198 204.521 132.706 202.305 135.798C200 139.194 199.032 143.32 199.59 147.384C200.856 156.946 208.233 163.926 211.271 172.803C212.523 176.46 212.831 180.352 211.406 184.009C210.199 187.116 207.815 189.951 204.389 190.593C204.25 190.614 204.118 190.667 204.004 190.748C203.889 190.829 203.796 190.936 203.73 191.06C204.223 191.479 204.727 191.886 205.243 192.285C205.861 192.143 206.463 191.935 207.038 191.667C210.318 190.107 212.437 186.996 213.498 183.609C214.722 179.689 214.256 175.61 212.886 171.795C209.692 162.9 201.797 155.583 201.306 145.762C200.88 137.249 207.891 131.367 215.206 128.534C224.256 125.032 234.401 125.552 243.317 121.62C250.332 118.526 256.889 112.326 256.922 104.186Z" fill="#2F2E41"/>
<path d="M265.227 108.372C264.644 107.984 264.056 107.615 263.462 107.259C263.394 107.345 263.344 107.445 263.317 107.552C263.29 107.659 263.287 107.77 263.307 107.878C264.246 115.821 262.109 123.822 257.333 130.245C255.268 133.063 252.741 135.512 249.859 137.49C246.842 139.544 243.45 140.784 240.101 142.176C236.807 143.545 233.475 145.153 231.089 147.876C228.657 150.652 227.636 154.234 227.526 157.862C227.269 166.459 232.166 173.956 233.176 182.324C233.626 186.056 233.088 189.761 230.999 192.956C229.193 195.714 226.365 197.722 222.971 197.593C221.849 197.545 221.922 199.175 222.91 199.414C222.978 199.43 223.047 199.439 223.117 199.441C227.066 199.588 230.445 197.165 232.533 193.976C234.966 190.27 235.567 185.94 234.951 181.607C233.753 173.224 228.669 165.475 229.435 156.8C229.541 154.98 230.028 153.202 230.866 151.581C231.703 149.961 232.873 148.534 234.298 147.393C237.235 145.11 240.822 143.904 244.225 142.496C247.626 141.159 250.793 139.29 253.605 136.959C256.35 134.601 258.7 131.819 260.566 128.719C264.295 122.623 265.931 115.48 265.227 108.372Z" fill="#2F2E41"/>
<path d="M277.148 119.089C276.357 118.111 275.526 117.164 274.657 116.249C275.861 120.969 276.066 125.888 275.26 130.691C274.288 136.735 271.805 142.436 268.039 147.268C266.152 149.674 263.927 151.797 261.434 153.571C258.583 155.593 255.431 157.36 253.543 160.409C249.446 167.029 253.191 174.951 255.204 181.56C256.26 185.01 256.975 188.715 255.807 192.228C254.898 194.952 252.884 197.596 249.909 198.134C248.74 198.344 248.88 200.199 250.055 199.982C250.275 199.94 250.495 199.892 250.714 199.837C253.945 198.988 256.276 196.35 257.408 193.236C258.875 189.173 258.187 184.963 256.955 180.926C254.927 174.288 250.756 165.612 256.509 159.605C258.936 157.071 262.222 155.517 264.873 153.232C267.249 151.194 269.335 148.842 271.076 146.242C276.405 138.256 278.57 128.579 277.148 119.089Z" fill="#2F2E41"/>
<path d="M241.664 251.385V250.195H261.655V222.432H262.845V250.195H285.756V228.755C286.157 229.069 286.552 229.392 286.943 229.725V250.195H302.076C302.244 250.589 302.406 250.986 302.559 251.385H286.943V274.715H306.332C306.314 275.115 306.286 275.508 306.253 275.905H286.943V294.517H301.409C301.232 294.917 301.045 295.31 300.849 295.701H286.943V311.347H285.756V295.701H262.845V311.347H261.655V295.701H241.664V294.517H261.655C261.656 292.073 261.174 289.652 260.237 287.394C259.299 285.136 257.926 283.084 256.194 281.355C254.462 279.627 252.406 278.256 250.143 277.321C247.88 276.386 245.455 275.905 243.006 275.905H241.664V274.715H261.655V251.385H241.664ZM262.845 294.517H285.756V275.905H262.845V294.517ZM262.845 274.715H285.756V274.248C285.756 271.245 285.163 268.272 284.012 265.498C282.86 262.724 281.173 260.204 279.045 258.081C276.918 255.958 274.392 254.274 271.612 253.125C268.832 251.976 265.853 251.385 262.845 251.385V274.715Z" fill="#2F2E41"/>
<path d="M298.22 469.81L468.926 470Cnan nan nan nan 468.926 470L298.22 468.339C298.123 468.339 298.027 468.357 297.937 468.394C297.848 468.431 297.766 468.485 297.697 468.554C297.629 468.622 297.574 468.703 297.537 468.793C297.5 468.882 297.481 468.978 297.481 469.075C297.481 469.171 297.5 469.267 297.537 469.357C297.574 469.446 297.629 469.527 297.697 469.595C297.766 469.664 297.848 469.718 297.937 469.755C298.027 469.792 298.123 469.81 298.22 469.81Z" fill="#CFCFDE"/>
</svg>
