<svg width="458" height="500" viewBox="0 0 458 500" fill="none" xmlns="http://www.w3.org/2000/svg">
<path d="M54 226.024C54 377.337 176.663 500 327.976 500C336.273 500 343 493.273 343 484.976V27.1139C343 12.1393 330.861 0 315.886 0H79.9939C65.6379 0 54 11.6379 54 25.9939V226.024Z" fill="#EEF9FE"/>
<g clip-path="url(#clip0_2_1678)">
<path d="M25.3004 238.24C25.3004 254.015 29.0613 267 35.5853 278.123C37.7385 281.787 40.1828 285.274 42.8949 288.551C66.8781 317.692 111.467 333.641 151.767 359.476C270.726 435.734 283.611 313.539 278.239 238.24C276.072 207.857 264.161 180.027 245.239 158.717C241.265 154.235 236.973 150.043 232.394 146.172C210.912 127.998 183.159 117 151.767 117C97.909 117 51.9157 149.271 33.68 194.747C28.1359 208.586 25.2921 223.346 25.3004 238.24V238.24Z" fill="#B1DAFF"/>
<path d="M124.821 144.324L245.238 158.717C241.264 154.235 236.972 150.043 232.393 146.172L124.821 144.324Z" fill="#CFCFDE"/>
<path d="M35.5859 278.123C37.7392 281.787 40.1835 285.274 42.8955 288.551L146.043 276.226L35.5859 278.123Z" fill="#CFCFDE"/>
<path d="M29.4727 207.252L204.285 184.727L33.6806 194.747C32.0421 198.833 30.6372 203.008 29.4727 207.252V207.252Z" fill="#CFCFDE"/>
<path d="M266.381 149.295C266.381 149.604 266.39 149.909 266.417 150.21C266.554 152.072 267.107 153.881 268.036 155.505C268.966 157.128 270.248 158.525 271.789 159.594C273.331 160.663 275.093 161.376 276.947 161.683C278.802 161.99 280.702 161.882 282.509 161.367C284.316 160.852 285.984 159.943 287.393 158.707C288.802 157.47 289.915 155.937 290.652 154.219C291.389 152.501 291.731 150.641 291.653 148.775C291.575 146.909 291.079 145.084 290.201 143.433C289.929 142.915 289.619 142.419 289.271 141.948C287.759 139.865 285.641 138.293 283.201 137.443C280.762 136.593 278.119 136.507 275.629 137.197C273.139 137.886 270.921 139.318 269.276 141.298C267.63 143.278 266.635 145.713 266.426 148.272C266.394 148.608 266.381 148.949 266.381 149.295Z" fill="#B1DAFF"/>
<path d="M266.381 149.295C266.381 149.604 266.39 149.909 266.417 150.21L285.344 147.949L266.426 148.272C266.395 148.608 266.381 148.949 266.381 149.295Z" fill="#CFCFDE"/>
<path d="M270.893 155.623L288.402 157.718C288.899 157.167 289.346 156.575 289.738 155.946L270.893 155.623Z" fill="#CFCFDE"/>
<path d="M275.86 141.719L290.199 143.432C289.927 142.915 289.617 142.419 289.269 141.948L275.86 141.719Z" fill="#CFCFDE"/>
<path d="M93.1285 375.407C93.2745 375.68 93.4264 375.946 93.5921 376.198C94.5918 377.78 95.9341 379.12 97.521 380.121C99.108 381.122 100.9 381.759 102.766 381.986C104.632 382.212 106.525 382.022 108.308 381.429C110.091 380.836 111.718 379.856 113.071 378.56C114.425 377.264 115.47 375.684 116.131 373.935C116.792 372.187 117.052 370.314 116.892 368.453C116.732 366.593 116.156 364.791 115.207 363.179C114.258 361.567 112.958 360.186 111.403 359.136C110.919 358.805 110.41 358.512 109.881 358.257C107.563 357.121 104.95 356.719 102.394 357.105C99.8384 357.49 97.4632 358.645 95.5889 360.414C93.7146 362.182 92.4313 364.479 91.9122 366.995C91.3931 369.511 91.6631 372.124 92.6858 374.483C92.8166 374.795 92.9655 375.102 93.1285 375.407Z" fill="#B1DAFF"/>
<path d="M93.1271 375.407C93.2732 375.68 93.4251 375.946 93.5908 376.198L109.242 365.388L92.6844 374.483C92.8153 374.795 92.9642 375.102 93.1271 375.407Z" fill="#CFCFDE"/>
<path d="M100.104 378.895L116.558 372.591C116.737 371.873 116.852 371.142 116.902 370.404L100.104 378.895Z" fill="#CFCFDE"/>
<path d="M97.9277 364.3L111.402 359.136C110.918 358.805 110.409 358.511 109.88 358.257L97.9277 364.3Z" fill="#CFCFDE"/>
<path d="M3.59178 158.916C3.37427 159.137 3.16641 159.362 2.97462 159.596C1.76342 161.024 0.888128 162.703 0.412556 164.509C-0.0630161 166.316 -0.126914 168.206 0.225501 170.04C0.577916 171.875 1.33781 173.608 2.44977 175.114C3.56174 176.62 4.99778 177.86 6.65334 178.745C8.3089 179.63 10.1423 180.136 12.0199 180.228C13.8976 180.32 15.7722 179.995 17.5072 179.276C19.2423 178.557 20.7942 177.463 22.0497 176.073C23.3053 174.683 24.2329 173.032 24.7651 171.241C24.9343 170.682 25.0605 170.111 25.1427 169.533C25.5244 166.993 25.1128 164.398 23.9635 162.098C22.8142 159.798 20.9824 157.903 18.7153 156.669C16.4481 155.436 13.8546 154.922 11.2846 155.199C8.71465 155.475 6.2918 156.528 4.34287 158.215C4.08382 158.434 3.83451 158.668 3.59178 158.916Z" fill="#B1DAFF"/>
<path d="M3.5922 158.916C3.37469 159.137 3.16683 159.362 2.97504 159.596L18.1133 171.105L4.34328 158.215C4.08422 158.434 3.83493 158.668 3.5922 158.916Z" fill="#CFCFDE"/>
<path d="M2.37625 166.578L13.4388 180.222C14.1814 180.172 14.9182 180.058 15.6406 179.88L2.37625 166.578Z" fill="#CFCFDE"/>
<path d="M15.7055 160.069L24.7669 171.241C24.9361 170.682 25.0623 170.111 25.1445 169.533L15.7055 160.069Z" fill="#CFCFDE"/>
<path d="M240.759 390.354C240.759 390.354 213.017 391.503 213.017 398.393C213.017 405.282 244.227 398.393 244.227 398.393L240.759 390.354Z" fill="#9E616A"/>
<path d="M334.39 492.555L282.373 496C282.373 496 289.355 398.404 301.192 351.862C305.896 351.334 313.525 350.599 322.125 350.209C342.874 349.244 369.345 350.243 374.396 360.888C374.396 360.888 377.159 384.612 378.315 390.354C379.47 396.096 397.965 438.584 399.121 482.22L348.261 489.11L336.701 464.995L334.39 492.555Z" fill="#2F2E41"/>
<path d="M340.168 229.589C324.208 229.589 311.27 216.736 311.27 200.88C311.27 185.025 324.208 172.172 340.168 172.172C356.128 172.172 369.066 185.025 369.066 200.88C369.066 216.736 356.128 229.589 340.168 229.589Z" fill="#9E616A"/>
<path d="M359.817 207.771C359.817 207.771 367.908 243.369 380.623 253.703C393.338 264.038 330.919 253.703 330.919 253.703C330.919 253.703 344.79 230.737 334.386 220.402C323.983 210.067 359.817 207.771 359.817 207.771Z" fill="#9E616A"/>
<path d="M300.865 354.756L320.042 356.869L373.688 362.794C373.688 362.794 373.942 362.117 374.393 360.888C378.288 350.335 397.049 298.982 399.118 283.56C401.43 266.335 377.156 245.665 377.156 245.665C377.156 245.665 354.037 241.072 347.102 241.072C340.166 241.072 312.424 251.407 312.424 251.407L302.079 343.859L301.189 351.862L300.865 354.756Z" fill="#CFCFDE"/>
<path opacity="0.15" d="M279.332 385.428L318.205 362.794C318.205 362.794 318.887 360.589 320.043 356.869C320.621 355.009 321.326 352.758 322.124 350.209C326.609 335.901 334.134 312.291 340.168 295.043C349.415 268.632 304.334 342.124 304.334 342.124L302.08 343.858L301.19 351.862C298.081 352.207 296.243 352.459 296.243 352.459C287.955 360.946 282.614 372.509 279.332 385.428Z" fill="#2F2E41"/>
<path d="M330.919 253.704C330.919 253.704 342.478 268.632 333.231 295.043C323.983 321.455 311.268 362.794 311.268 362.794L244.225 401.837L234.977 390.354L297.397 342.125C297.397 342.125 299.709 254.852 311.268 251.407C322.827 247.962 330.919 253.704 330.919 253.704Z" fill="#CFCFDE"/>
<path d="M388.137 354.182C388.137 354.182 371.954 387.483 365.018 384.038C358.083 380.593 382.357 346.144 382.357 346.144L388.137 354.182Z" fill="#9E616A"/>
<path d="M389.872 262.89L451.136 313.416C451.136 313.416 474.255 329.493 431.486 340.976C388.717 352.459 385.249 359.349 385.249 359.349C385.249 359.349 380.625 344.421 374.846 346.718L424.55 322.603L384.093 298.488L389.872 262.89Z" fill="#CFCFDE"/>
<path d="M389.375 184.5C390.786 191.57 388.376 207 385.375 217C383.375 221.5 380.373 231 370.874 236.5C356.421 232.911 340.483 233.883 346.505 228.498C352.527 223.114 348.914 215.337 336.87 209.355C330.571 206.226 328.397 199.172 329.213 192.383C320.099 192.745 309.695 192.431 309.536 182.486C309.536 182.486 312.75 158.711 343.282 158.112C347.319 152.551 370.08 158.764 380.373 169.894C384.564 174.426 386.827 178.752 389.375 184.5Z" fill="#2F2E41"/>
<path d="M201.446 335.246L204.318 336.136C205.619 336.504 207.358 336.488 208.046 334.268L209.755 328.752C210.443 326.533 209.017 325.537 207.737 325.105L204.864 324.214L201.446 335.246L201.446 335.246ZM197.645 306.864L195.936 312.38C195.249 314.599 196.674 315.596 197.955 316.028L200.827 316.918L204.246 305.887L201.373 304.996C200.072 304.629 198.333 304.645 197.645 306.864V306.864Z" fill="#2F2E41"/>
<path d="M224.788 290.292C226.081 289.597 227.111 288.417 227.58 286.903C228.505 283.919 226.891 280.787 223.981 279.768C226.204 279.111 243.289 273.857 239.497 267.894C235.445 261.519 220.417 266.859 216.228 265.182C211.825 264.197 202.449 251.295 195.503 254.262C189.004 257.036 200.122 271.029 201.584 272.827C198.613 272.025 195.509 273.694 194.584 276.679C194.115 278.193 194.3 279.749 194.968 281.053C178.778 284.302 163.553 299.015 157.147 319.69C155.966 323.502 155.182 327.306 154.704 331.069C176.885 346.031 202.964 354.112 229.719 354.313C231.453 350.939 232.957 347.358 234.138 343.546C240.544 322.872 236.306 302.128 224.788 290.292ZM209.038 317.565C212.357 318.594 216.602 322.333 214.714 328.426L212.998 333.962C211.11 340.056 205.495 340.739 202.176 339.711L199.426 338.859L198.569 341.627C198.096 343.152 196.475 344.012 194.961 343.543C193.447 343.074 192.597 341.447 193.069 339.923L193.927 337.155L185.678 334.599C184.163 334.129 183.313 332.503 183.786 330.978C184.258 329.454 185.879 328.593 187.393 329.062L195.642 331.618L199.073 320.546L196.324 319.694C193.005 318.665 188.76 314.926 190.648 308.833L192.363 303.297C194.252 297.203 199.867 296.52 203.186 297.548L205.935 298.4L206.793 295.632C207.266 294.107 208.886 293.247 210.401 293.716C211.915 294.185 212.765 295.811 212.293 297.336L211.435 300.104L219.684 302.66C221.198 303.129 222.048 304.756 221.576 306.28C221.103 307.805 219.483 308.666 217.969 308.196L209.719 305.64L206.288 316.713L209.038 317.565V317.565Z" fill="#2F2E41"/>
</g>
<defs>
<clipPath id="clip0_2_1678">
<rect width="457.373" height="379" fill="white" transform="matrix(-1 0 0 1 457.375 117)"/>
</clipPath>
</defs>
</svg>
