<svg width="600" height="443" viewBox="0 0 600 443" fill="none" xmlns="http://www.w3.org/2000/svg">
<path d="M96 382C96 245.586 206.586 135 343 135C479.414 135 590 245.586 590 382V419H96V382Z" fill="#EDF6E8"/>
<g clip-path="url(#clip0_2_1678)">
<path d="M18.2565 390.677C2.9735 377.519 -4.90651 357.807 3.30403 341.133C15.2566 357.912 34.9336 371.126 57.7471 377.695C66.6326 380.253 76.8509 382.363 81.6838 388.817C84.6912 392.832 84.9102 397.861 83.5554 402.407C82.2003 406.954 79.4104 411.136 76.6482 415.261L76.6325 416.428C55.0057 411.396 33.5395 403.835 18.2565 390.677Z" fill="white"/>
<path d="M3.76318 341.222C6.33994 355.742 14.7719 369.703 27.6639 380.227C30.4622 382.608 33.6377 384.588 37.083 386.101C40.6286 387.537 44.4938 388.19 48.3664 388.008C52.0143 387.902 55.7302 387.458 59.3471 388.058C61.121 388.343 62.8138 388.952 64.3242 389.85C65.8346 390.747 67.1317 391.914 68.1378 393.28C70.5357 396.505 71.3319 400.223 71.9516 403.88C72.6396 407.94 73.2733 412.167 76.1964 415.66C76.5506 416.083 75.7034 416.495 75.3497 416.072C70.264 409.995 71.9656 402.229 68.534 395.675C66.9328 392.617 64.162 389.924 60.0198 389C56.3976 388.193 52.5652 388.648 48.8728 388.781C45.0885 389.001 41.2966 388.477 37.7526 387.243C34.2232 385.877 30.9583 383.997 28.084 381.679C21.7907 376.76 16.4131 370.939 12.1617 364.442C7.4435 357.326 4.25578 349.45 2.77004 341.238C2.68103 340.737 3.67475 340.723 3.76318 341.222V341.222Z" fill="white"/>
<path d="M23.2463 376.982C20.6217 378.47 17.5552 379.173 14.4735 378.993C11.3917 378.813 8.44793 377.759 6.05168 375.978C5.59784 375.62 6.27564 375.043 6.73007 375.401C8.95798 377.063 11.6994 378.044 14.5689 378.207C17.4384 378.37 20.2915 377.706 22.7271 376.309C23.2414 376.008 23.7577 376.682 23.2463 376.982V376.982Z" fill="white"/>
<path d="M46.525 388.255C47.0355 385.719 46.9529 383.112 46.2826 380.607C45.6123 378.102 44.3695 375.755 42.636 373.72C42.2837 373.296 43.1308 372.884 43.4826 373.308C45.2817 375.428 46.5691 377.872 47.2599 380.481C47.9508 383.089 48.0295 385.801 47.4908 388.439C47.3847 388.941 46.4195 388.754 46.525 388.255Z" fill="white"/>
<path d="M8.70113 357.113C9.78467 356.76 10.7516 356.159 11.51 355.368C12.2685 354.577 12.7934 353.622 13.0351 352.594C13.1331 352.091 14.0983 352.278 14.0009 352.778C13.7285 353.913 13.1477 354.967 12.3121 355.842C11.4766 356.717 10.4132 357.386 9.22037 357.786C9.10718 357.838 8.97811 357.854 8.85411 357.83C8.73012 357.806 8.61851 357.745 8.53743 357.656C8.50423 357.612 8.48199 357.562 8.47228 357.509C8.46257 357.456 8.46564 357.402 8.48124 357.35C8.49684 357.298 8.52456 357.25 8.56255 357.209C8.60054 357.169 8.64784 357.136 8.70113 357.113V357.113Z" fill="white"/>
<path d="M75.7773 322.175C75.7274 322.49 75.6774 322.805 75.6336 323.125C74.9899 327.359 74.7803 331.638 75.0075 335.908C75.0185 336.238 75.0359 336.572 75.0588 336.901C75.7782 347.289 78.8736 357.422 84.1449 366.646C86.2893 370.413 88.7658 374.012 91.5496 377.411C95.4282 382.152 100.108 387.049 101.741 392.375C101.919 392.927 102.053 393.49 102.145 394.059L78.4261 416.352C78.3402 416.382 78.2604 416.415 78.1742 416.445L77.2784 417.369C77.118 417.2 76.9562 417.022 76.7958 416.853C76.7023 416.755 76.614 416.653 76.5205 416.555C76.4598 416.488 76.3993 416.421 76.3397 416.364C76.3194 416.341 76.2994 416.319 76.2855 416.301C76.2259 416.244 76.1782 416.185 76.1251 416.132C75.2173 415.139 74.3167 414.139 73.4233 413.132C73.4168 413.127 73.4169 413.127 73.4157 413.118C66.6332 405.431 60.5988 397.227 56.3233 388.556C56.1948 388.296 56.0596 388.031 55.9419 387.759C54.0531 383.872 52.5581 379.835 51.4755 375.698C50.8984 373.452 50.4638 371.177 50.1739 368.885C49.4422 362.969 49.8865 356.98 51.4852 351.208C54.6788 339.643 62.4918 329.019 74.8288 322.654C75.1445 322.491 75.4552 322.333 75.7773 322.175Z" fill="white"/>
<path d="M76.0791 322.464C67.1333 335.29 63.287 350.471 65.6057 365.041C66.0254 368.248 67.0647 371.362 68.6752 374.237C70.4679 377.125 73.0817 379.516 76.2395 381.157C79.2327 382.817 82.5364 384.24 84.9695 386.449C86.1662 387.525 87.0675 388.845 87.5996 390.3C88.1318 391.756 88.2797 393.306 88.0313 394.824C87.5018 398.546 85.3204 401.896 83.044 405.112C80.5165 408.683 77.8201 412.361 77.5073 416.548C77.4694 417.055 76.4808 416.979 76.5186 416.472C77.0628 409.187 84.3066 403.8 86.5328 396.926C87.5716 393.718 87.4 390.242 84.7924 387.524C82.5122 385.146 79.107 383.677 76.058 382.016C72.9411 380.442 70.2929 378.194 68.3445 375.469C66.5575 372.677 65.3686 369.6 64.8413 366.401C63.5461 359.314 63.6639 352.071 65.1891 345.022C66.924 336.833 70.3462 329.021 75.2735 322.002C75.5825 321.559 76.3861 322.024 76.0791 322.464V322.464Z" fill="white"/>
<path d="M64.5381 360.337C58.042 360.283 52.4991 356.41 51.5704 351.309C51.479 350.807 52.4574 350.67 52.549 351.173C53.419 355.952 58.5609 359.501 64.6333 359.551C65.2724 359.556 65.1735 360.342 64.5381 360.337V360.337Z" fill="white"/>
<path d="M74.582 380.474C76.8289 378.836 78.6886 376.798 80.0481 374.484C81.4076 372.169 82.2386 369.626 82.4907 367.008C82.5308 366.501 83.5194 366.577 83.4793 367.084C83.2103 369.807 82.339 372.453 80.9181 374.859C79.4973 377.266 77.5566 379.383 75.2138 381.083C74.7489 381.433 74.1197 380.822 74.582 380.474V380.474Z" fill="white"/>
<path d="M67.981 337.515C69.1815 337.738 70.4209 337.716 71.611 337.45C72.8011 337.185 73.9125 336.683 74.8662 335.979C75.3252 335.625 75.954 336.236 75.4979 336.588C74.4407 337.361 73.2123 337.915 71.8979 338.211C70.5834 338.506 69.2144 338.537 67.8858 338.301C67.622 338.253 67.4141 338.102 67.4391 337.87C67.4628 337.759 67.5321 337.66 67.6329 337.594C67.7336 337.528 67.8582 337.5 67.981 337.515V337.515Z" fill="white"/>
<path d="M449.36 35.5347C447.361 32.7874 448.544 28.8546 452.002 26.7506C455.459 24.6466 459.883 25.1682 461.881 27.9156C463.88 30.663 462.697 34.5957 459.239 36.6997C455.781 38.8037 451.358 38.2821 449.36 35.5347Z" fill="#FD6584"/>
<path d="M376.676 264.444C374.677 261.697 375.86 257.764 379.318 255.66C382.776 253.556 387.199 254.078 389.198 256.825C391.196 259.573 390.013 263.505 386.556 265.609C383.098 267.713 378.674 267.192 376.676 264.444Z" fill="white"/>
<path d="M580.266 68.1299C578.267 65.3826 579.45 61.4498 582.908 59.3458C586.366 57.2419 590.789 57.7634 592.788 60.5108C594.786 63.2582 593.603 67.191 590.145 69.2949C586.688 71.3989 582.264 70.8773 580.266 68.1299Z" fill="white"/>
<path d="M323.666 230.992L569.478 230.992C577.57 230.983 585.328 228.04 591.05 222.807C596.772 217.573 599.991 210.478 600 203.077V106.442C599.991 99.0412 596.772 91.9459 591.05 86.7127C585.328 81.4796 577.57 78.5359 569.478 78.5275C491.041 58.6533 408.776 60.5152 323.666 78.5275C315.574 78.5359 307.816 81.4796 302.094 86.7127C296.372 91.9459 293.153 99.0412 293.144 106.442L293.144 203.077C293.153 210.478 296.372 217.573 302.094 222.807C307.816 228.04 315.574 230.983 323.666 230.992Z" fill="white"/>
<path d="M573.813 206.368C573.91 206.368 574.006 206.351 574.095 206.317C574.185 206.283 574.266 206.233 574.335 206.171C574.403 206.108 574.458 206.034 574.495 205.952C574.532 205.87 574.551 205.782 574.551 205.694V103.826C574.551 103.647 574.473 103.475 574.335 103.349C574.196 103.222 574.009 103.151 573.813 103.151C573.618 103.151 573.43 103.222 573.292 103.349C573.153 103.475 573.076 103.647 573.076 103.826V205.694C573.075 205.782 573.095 205.87 573.132 205.952C573.169 206.034 573.223 206.108 573.292 206.171C573.36 206.233 573.441 206.283 573.531 206.317C573.62 206.351 573.716 206.368 573.813 206.368V206.368Z" fill="white"/>
<path d="M317.856 206.368C317.759 206.368 317.663 206.351 317.574 206.317C317.484 206.283 317.403 206.233 317.335 206.171C317.266 206.108 317.212 206.034 317.175 205.952C317.138 205.87 317.118 205.782 317.118 205.694V103.826C317.118 103.647 317.196 103.475 317.335 103.349C317.473 103.222 317.66 103.151 317.856 103.151C318.052 103.151 318.239 103.222 318.378 103.349C318.516 103.475 318.594 103.647 318.594 103.826L318.594 205.694C318.594 205.782 318.575 205.87 318.538 205.952C318.501 206.034 318.446 206.108 318.378 206.171C318.309 206.233 318.228 206.283 318.138 206.317C318.049 206.351 317.953 206.368 317.856 206.368V206.368Z" fill="white"/>
<path d="M366.54 125.414H366.542C366.738 125.413 366.925 125.342 367.063 125.215C367.201 125.088 367.278 124.916 367.277 124.737L366.909 21.52C366.908 21.3415 366.83 21.1705 366.692 21.0445C366.553 20.9185 366.366 20.8477 366.171 20.8477H366.168C365.973 20.8483 365.785 20.9199 365.648 21.0469C365.51 21.1738 365.433 21.3457 365.433 21.5246L365.802 124.742C365.803 124.92 365.881 125.091 366.019 125.217C366.157 125.343 366.345 125.414 366.54 125.414V125.414Z" fill="#2F2E41"/>
<path d="M460.958 273.156H460.96C461.156 273.155 461.343 273.084 461.481 272.957C461.619 272.83 461.696 272.658 461.695 272.479L461.326 171.96C461.326 171.782 461.248 171.611 461.11 171.485C460.971 171.359 460.784 171.288 460.589 171.288H460.586C460.391 171.289 460.203 171.36 460.066 171.487C459.928 171.614 459.851 171.786 459.851 171.965L460.22 272.483C460.221 272.662 460.299 272.833 460.437 272.959C460.575 273.085 460.762 273.156 460.958 273.156V273.156Z" fill="#2F2E41"/>
<path d="M531.032 144.303H531.034C531.23 144.303 531.417 144.231 531.555 144.104C531.693 143.977 531.77 143.805 531.77 143.626L531.401 41.7587C531.4 41.5802 531.322 41.4093 531.184 41.2832C531.045 41.1572 530.858 41.0865 530.663 41.0864H530.661C530.465 41.087 530.278 41.1587 530.14 41.2857C530.002 41.4126 529.925 41.5844 529.925 41.7633L530.294 143.631C530.295 143.81 530.373 143.981 530.511 144.107C530.649 144.233 530.837 144.303 531.032 144.303V144.303Z" fill="#2F2E41"/>
<path d="M561.489 171.423C560.069 164.409 551.349 161.174 544.284 161.723C534.187 162.509 525.76 168.588 516.363 171.454C511.822 172.84 506.936 173.6 502.177 172.803C498.426 172.096 494.947 170.49 492.098 168.149C486.634 163.878 482.94 158.053 477.472 153.787C474.548 151.379 470.849 149.902 466.93 149.577C462.106 149.284 457.381 150.779 453.152 152.784C444.751 156.766 437.873 163.101 428.925 166.174C424.816 167.623 420.36 168.044 416.014 167.394C411.677 166.604 407.552 165.038 403.878 162.788C396.173 158.336 389.824 152.159 381.723 148.255C377.739 146.335 373.314 144.867 368.763 144.838C364.366 144.843 360.138 146.391 356.951 149.163C350.816 154.263 345.979 162.315 336.608 162.457C334.654 162.49 332.731 162.007 331.069 161.066C329.86 160.382 330.97 158.631 332.186 159.319C336.005 161.479 340.605 160.115 344.087 158.021C347.794 155.789 350.426 152.379 353.452 149.474C356.458 146.587 359.965 144.156 364.289 143.256C368.609 142.475 373.082 142.817 377.201 144.242C386.053 147.063 392.753 152.869 400.099 157.92C407.339 162.898 415.792 167.205 425.133 165.132C434.435 163.068 441.491 156.626 449.535 152.302C457.311 148.122 466.843 145.453 475.217 149.851C481.544 153.174 485.545 159.043 490.404 163.824C492.802 166.183 495.476 168.376 498.715 169.716C503.216 171.578 508.303 171.361 512.991 170.257C522.77 167.955 531.019 161.933 540.977 160.131C548.369 158.794 557.117 160.479 561.629 166.455C562.626 167.787 563.306 169.296 563.623 170.885C563.881 172.158 561.749 172.704 561.489 171.423L561.489 171.423Z" fill="#2F2E41"/>
<path d="M530.661 175.842C525.365 175.842 521.071 171.915 521.071 167.072C521.071 162.228 525.365 158.302 530.661 158.302C535.957 158.302 540.25 162.228 540.25 167.072C540.25 171.915 535.957 175.842 530.661 175.842Z" fill="#B1DAFF"/>
<path d="M461.692 157.29C456.396 157.29 452.103 153.363 452.103 148.52C452.103 143.676 456.396 139.75 461.692 139.75C466.988 139.75 471.281 143.676 471.281 148.52C471.281 153.363 466.988 157.29 461.692 157.29Z" fill="#B1DAFF"/>
<path d="M367.278 151.218C361.982 151.218 357.689 147.291 357.689 142.448C357.689 137.604 361.982 133.678 367.278 133.678C372.574 133.678 376.867 137.604 376.867 142.448C376.867 147.291 372.574 151.218 367.278 151.218Z" fill="#B1DAFF"/>
<path d="M449.532 298.847H470.565C471.722 298.847 472.84 298.464 473.713 297.77C474.586 297.076 475.156 296.117 475.319 295.07C476.618 286.329 476.618 277.468 475.319 268.728C475.159 267.695 474.602 266.748 473.749 266.056C472.895 265.364 471.8 264.972 470.66 264.95C463.811 261.587 456.673 261.586 449.441 264.95C448.751 264.961 448.072 265.109 447.451 265.384C446.83 265.66 446.282 266.055 445.845 266.544C445.388 267.055 445.06 267.652 444.887 268.293C444.714 268.933 444.698 269.601 444.842 270.248C446.532 277.938 446.532 285.859 444.842 293.549C444.698 294.196 444.714 294.864 444.887 295.505C445.06 296.145 445.388 296.743 445.845 297.253C446.292 297.753 446.854 298.155 447.492 298.431C448.129 298.706 448.826 298.849 449.532 298.847V298.847Z" fill="#B1DAFF"/>
<path d="M352.903 35.9314L373.936 35.9314C375.093 35.9306 376.211 35.5481 377.084 34.8541C377.957 34.1602 378.528 33.2014 378.69 32.1538C379.989 23.4132 379.989 14.5522 378.69 5.8116C378.529 4.7766 377.971 3.82783 377.114 3.13561C376.258 2.44338 375.16 2.05304 374.017 2.03465C367.399 -0.678328 360.272 -0.677997 352.83 2.03432C352.137 2.04273 351.455 2.18979 350.83 2.46515C350.206 2.74052 349.655 3.13753 349.216 3.62831C348.759 4.13887 348.432 4.73621 348.258 5.37694C348.085 6.01767 348.069 6.6857 348.214 7.33247C349.903 15.0224 349.903 22.943 348.214 30.6329C348.069 31.2797 348.085 31.9477 348.258 32.5884C348.432 33.2292 348.759 33.8265 349.216 34.3371C349.663 34.8365 350.225 35.2388 350.863 35.5145C351.501 35.7903 352.197 35.9327 352.903 35.9314V35.9314Z" fill="#B1DAFF"/>
<path d="M520.551 53.4506L541.584 53.4506C542.289 53.452 542.986 53.3096 543.624 53.0338C544.262 52.758 544.824 52.3558 545.27 51.8563C545.728 51.3457 546.055 50.7484 546.229 50.1077C546.402 49.4669 546.417 48.7989 546.273 48.1522C544.584 40.4622 544.584 32.5417 546.273 24.8517C546.417 24.2049 546.402 23.5368 546.229 22.896C546.055 22.2552 545.728 21.6578 545.27 21.1472C544.833 20.6583 544.285 20.2624 543.663 19.9872C543.042 19.712 542.362 19.5641 541.672 19.5539C535.277 16.6897 528.147 16.6897 520.477 19.5539C519.333 19.5706 518.233 19.9602 517.375 20.6526C516.517 21.345 515.958 22.2948 515.797 23.3308C514.498 32.0713 514.498 40.9322 515.797 49.6727C515.959 50.7203 516.529 51.6792 517.403 52.3733C518.276 53.0673 519.394 53.4499 520.551 53.4506V53.4506Z" fill="#CFCFDE"/>
<path d="M355.105 12.0776L372.809 12.0776Cnan nan nan nan 372.809 12.0776L355.105 10.0537V12.0776Cnan nan nan nan 355.105 12.0776V12.0776Z" fill="white"/>
<path d="M355.105 20.1728L372.809 20.1728Cnan nan nan nan 372.809 20.1728L355.105 18.1489V20.1728Cnan nan nan nan 355.105 20.1728V20.1728Z" fill="white"/>
<path d="M355.105 28.2685L372.809 28.2685Cnan nan nan nan 372.809 28.2685L355.105 26.2446V28.2685Cnan nan nan nan 355.105 28.2685V28.2685Z" fill="white"/>
<path d="M520.226 28.2685L537.93 28.2685Cnan nan nan nan 537.93 28.2685L520.226 26.2446V28.2685Cnan nan nan nan 520.226 28.2685Z" fill="white"/>
<path d="M520.226 36.3637L537.93 36.3637Cnan nan nan nan 537.93 36.3637L520.226 34.3398V36.3637Cnan nan nan nan 520.226 36.3637Z" fill="white"/>
<path d="M520.226 44.4594L537.93 44.4594Cnan nan nan nan 537.93 44.4594L520.226 42.4355V44.4594Cnan nan nan nan 520.226 44.4594Z" fill="white"/>
<path d="M450.891 273.156H468.594Cnan nan nan nan 468.594 273.156L450.891 271.132V273.156Cnan nan nan nan 450.891 273.156Z" fill="white"/>
<path d="M450.891 281.251H468.594Cnan nan nan nan 468.594 281.251L450.891 279.228V281.251Cnan nan nan nan 450.891 281.251Z" fill="white"/>
<path d="M450.891 289.347H468.594Cnan nan nan nan 468.594 289.347L450.891 287.323V289.347Cnan nan nan nan 450.891 289.347Z" fill="white"/>
<path d="M157.001 407L165.809 406.999L170 371L157 371.001L157.001 407Z" fill="#FFB6B6"/>
<path d="M153 405.359L155.706 405.359L166.271 401L171.933 405.359H171.934C175.134 405.359 178.203 406.649 180.466 408.945C182.728 411.24 184 414.354 184 417.601V417.999L153.001 418L153 405.359Z" fill="#2F2E41"/>
<path d="M193 401.898L202.801 404L216 369.101L201.535 366L193 401.898Z" fill="#FFB6B6"/>
<path d="M191.778 398.315L194.45 398.933L205.841 397L210.475 402.64L210.476 402.64C213.636 403.371 216.383 405.358 218.113 408.165C219.842 410.971 220.413 414.366 219.7 417.603L219.613 418L189 410.919L191.778 398.315Z" fill="#2F2E41"/>
<path d="M140 217.602L148.602 315.36C148.602 315.36 145.379 374.049 155.78 394.701H170.864L178.332 310L179.27 253.148L211.609 301.112L191.011 393.317L209.576 395L243 294.936L206.279 201L140 217.602Z" fill="#2F2E41"/>
<path d="M147.5 63C159.926 63 170 52.7026 170 40C170 27.2975 159.926 17 147.5 17C135.074 17 125 27.2975 125 40C125 52.7026 135.074 63 147.5 63Z" fill="#FFB6B6"/>
<path d="M166.078 281H199.413C200.531 281.002 201.635 280.769 202.646 280.318C203.657 279.866 204.548 279.208 205.256 278.39C205.981 277.555 206.499 276.577 206.774 275.528C207.049 274.479 207.073 273.386 206.845 272.327C204.167 259.74 204.167 246.775 206.845 234.188C207.073 233.129 207.049 232.036 206.774 230.987C206.499 229.938 205.981 228.96 205.256 228.124C204.563 227.324 203.694 226.676 202.709 226.225C201.723 225.775 200.646 225.533 199.552 225.516C189.417 220.828 178.117 220.828 165.961 225.516C164.147 225.544 162.404 226.181 161.044 227.315C159.685 228.448 158.798 230.003 158.544 231.698C156.485 246.005 156.485 260.509 158.544 274.816C158.801 276.531 159.704 278.101 161.089 279.237C162.473 280.373 164.244 280.999 166.078 281V281Z" fill="#CFCFDE"/>
<path d="M164 241H192Cnan nan nan nan 192 241L164 236V241Cnan nan nan nan 164 241Z" fill="white"/>
<path d="M164 253H192Cnan nan nan nan 192 253L164 250V253Cnan nan nan nan 164 253Z" fill="white"/>
<path d="M164 266H192Cnan nan nan nan 192 266L164 263V266Cnan nan nan nan 164 266Z" fill="white"/>
<path d="M185.927 83.3834L167.518 75.494L158.556 66L136.168 69.6063L130.228 79.7788L111 97.637L133.528 199.378L132.846 221.599C132.846 221.599 147.265 228.082 209.797 213.155C210.547 212.976 208.977 212.192 208.977 212.192L185.927 83.3834Z" fill="#2F2E41"/>
<path d="M169.336 23.7101C167.888 20.4668 165.308 17.9022 162.107 16.5262C158.935 15.2098 155.389 15.213 152.219 16.5351C149.356 14.6747 146.176 13.1998 142.827 13.0171C139.477 12.8344 135.936 14.1127 133.872 16.9266C133.411 17.6694 132.888 18.369 132.308 19.0175C130.649 20.5981 128.127 20.3701 125.922 20.0469C126.911 20.919 127.9 21.7911 128.89 22.6632C127.693 22.985 126.495 23.3067 125.298 23.6285C126.695 24.5003 128.092 25.3722 129.489 26.244C125.433 28.7486 123.589 34.2154 124.076 39.1803C124.537 43.881 126.743 48.1794 129.38 52C130.432 49.7162 130.206 46.9835 130.188 44.4114C130.17 41.6936 130.637 38.6075 132.754 37.0886C134.182 36.064 136.019 36.0182 137.741 36.0279C146.427 36.077 155.103 36.6342 163.727 37.6969C164.898 37.749 166.039 38.0895 167.054 38.6897C168.962 40.0282 169.333 42.7906 169.525 45.214C170.532 41.2126 171.026 37.0924 170.992 32.959C171.076 29.7907 170.512 26.6394 169.336 23.7101V23.7101Z" fill="#2F2E41"/>
<path d="M163.401 236.282C163.862 235.073 164.061 233.774 163.984 232.476C163.906 231.179 163.554 229.915 162.953 228.773C162.351 227.632 161.515 226.64 160.502 225.869C159.49 225.097 158.326 224.564 157.092 224.308L152.965 193L141 203.806L146.753 231.88C146.474 234.049 146.974 236.249 148.159 238.063C149.344 239.877 151.132 241.178 153.185 241.721C155.237 242.263 157.41 242.01 159.293 241.007C161.176 240.005 162.638 238.324 163.401 236.282V236.282Z" fill="#FFB6B6"/>
<path d="M114.72 97L111.363 97.6426L109.333 100.196C109.333 100.196 106.049 113.063 109.79 122.055C113.53 131.047 140.575 221.437 140.575 221.437L160 222L144.868 148.714L114.72 97Z" fill="#2F2E41"/>
<path d="M190.529 230.221C189.578 229.297 188.86 228.193 188.424 226.986C187.988 225.779 187.846 224.499 188.006 223.236C188.167 221.973 188.627 220.758 189.354 219.676C190.081 218.594 191.057 217.671 192.214 216.974L184 187L200.497 192.3L205.768 219.951C206.914 221.815 207.277 224 206.787 226.093C206.298 228.186 204.99 230.041 203.111 231.307C201.233 232.573 198.914 233.162 196.595 232.962C194.276 232.761 192.118 231.786 190.529 230.221V230.221Z" fill="#FFB6B6"/>
<path d="M185.36 85.6521L188.595 85L191.329 86.6067C191.329 86.6067 198.894 97.2822 198.783 106.982C198.673 116.683 207 210.271 207 210.271L189.829 218L177 144.641L185.36 85.6521Z" fill="#2F2E41"/>
</g>
<defs>
<clipPath id="clip0_2_1678">
<rect width="600" height="442.778" fill="white" transform="matrix(-1 0 0 1 600 0)"/>
</clipPath>
</defs>
</svg>
