<svg width="719" height="173" viewBox="0 0 719 173" fill="none" xmlns="http://www.w3.org/2000/svg">
<path d="M716.501 154.5C661.502 134.5 678.205 56.7432 377 110.5C136.698 153.387 171 204.5 2.5004 9.50044" stroke="#B1DAFF" stroke-width="4" stroke-linecap="round" stroke-linejoin="round" stroke-dasharray="10.11 10.11"/>
<path d="M518.164 57.3999V76.2756" stroke="#B1DAFF" stroke-width="6" stroke-miterlimit="10" stroke-linecap="round" stroke-linejoin="round"/>
<path d="M518.164 113.082V94.2068" stroke="#B1DAFF" stroke-width="6" stroke-miterlimit="10" stroke-linecap="round" stroke-linejoin="round"/>
<path d="M545.997 85.2415H527.121" stroke="#B1DAFF" stroke-width="6" stroke-miterlimit="10" stroke-linecap="round" stroke-linejoin="round"/>
<path d="M490.316 85.2415H509.192" stroke="#B1DAFF" stroke-width="6" stroke-miterlimit="10" stroke-linecap="round" stroke-linejoin="round"/>
<path d="M147.292 109.245C148.558 109.245 149.585 108.219 149.585 106.953C149.585 105.687 148.558 104.66 147.292 104.66C146.026 104.66 145 105.687 145 106.953C145 108.219 146.026 109.245 147.292 109.245Z" stroke="#B1DAFF" stroke-width="30" stroke-miterlimit="10" stroke-linecap="round" stroke-linejoin="round"/>
<path d="M308.743 169.085C317.561 169.085 324.709 162.103 324.709 153.49C324.709 144.877 317.561 137.896 308.743 137.896C299.925 137.896 292.777 144.877 292.777 153.49C292.777 162.103 299.925 169.085 308.743 169.085Z" stroke="#B1DAFF" stroke-width="7" stroke-miterlimit="10" stroke-linecap="round" stroke-linejoin="round"/>
<path d="M360.371 2V18.622" stroke="#B1DAFF" stroke-width="4" stroke-miterlimit="10" stroke-linecap="round" stroke-linejoin="round"/>
<path d="M360.371 51.0346V34.4126" stroke="#B1DAFF" stroke-width="4" stroke-miterlimit="10" stroke-linecap="round" stroke-linejoin="round"/>
<path d="M384.884 26.5171H368.262" stroke="#B1DAFF" stroke-width="4" stroke-miterlimit="10" stroke-linecap="round" stroke-linejoin="round"/>
<path d="M335.848 26.5171H352.47" stroke="#B1DAFF" stroke-width="4" stroke-miterlimit="10" stroke-linecap="round" stroke-linejoin="round"/>
</svg>
