<svg width="844" height="468" viewBox="0 0 844 468" fill="none" xmlns="http://www.w3.org/2000/svg">
<path d="M2.83505 465.787C21.3088 389.942 -20.0654 100.384 317.216 77.7798C563.311 61.2866 566.162 403.462 841.422 224.123" stroke="#B1DAFF" stroke-width="4" stroke-linecap="round" stroke-linejoin="round" stroke-dasharray="10.11 10.11"/>
<path d="M577.508 76.6025V102.021" stroke="#B1DAFF" stroke-width="6" stroke-miterlimit="10" stroke-linecap="round" stroke-linejoin="round"/>
<path d="M577.508 151.586V126.167" stroke="#B1DAFF" stroke-width="6" stroke-miterlimit="10" stroke-linecap="round" stroke-linejoin="round"/>
<path d="M614.997 114.095H589.578" stroke="#B1DAFF" stroke-width="6" stroke-miterlimit="10" stroke-linecap="round" stroke-linejoin="round"/>
<path d="M540.012 114.095H565.43" stroke="#B1DAFF" stroke-width="6" stroke-miterlimit="10" stroke-linecap="round" stroke-linejoin="round"/>
<path d="M78.087 146.419C79.7919 146.419 81.1739 145.037 81.1739 143.332C81.1739 141.627 79.7919 140.245 78.087 140.245C76.3821 140.245 75 141.627 75 143.332C75 145.037 76.3821 146.419 78.087 146.419Z" stroke="#B1DAFF" stroke-width="30" stroke-miterlimit="10" stroke-linecap="round" stroke-linejoin="round"/>
<path d="M295.5 227C307.374 227 317 217.598 317 206C317 194.402 307.374 185 295.5 185C283.626 185 274 194.402 274 206C274 217.598 283.626 227 295.5 227Z" stroke="#B1DAFF" stroke-width="7" stroke-miterlimit="10" stroke-linecap="round" stroke-linejoin="round"/>
<path d="M365.023 2V24.3836" stroke="#B1DAFF" stroke-width="4" stroke-miterlimit="10" stroke-linecap="round" stroke-linejoin="round"/>
<path d="M365.023 68.0315V45.6479" stroke="#B1DAFF" stroke-width="4" stroke-miterlimit="10" stroke-linecap="round" stroke-linejoin="round"/>
<path d="M398.032 35.0156H375.648" stroke="#B1DAFF" stroke-width="4" stroke-miterlimit="10" stroke-linecap="round" stroke-linejoin="round"/>
<path d="M332 35.0156H354.384" stroke="#B1DAFF" stroke-width="4" stroke-miterlimit="10" stroke-linecap="round" stroke-linejoin="round"/>
</svg>
