<svg width="19" height="16" viewBox="0 0 19 16" fill="none" xmlns="http://www.w3.org/2000/svg">
<path fill-rule="evenodd" clip-rule="evenodd" d="M9.43095 4.44334L9.47082 5.10078L8.80632 5.02028C6.38752 4.71168 4.27439 3.66514 2.48023 1.90749L1.60308 1.03537L1.37715 1.6794C0.898703 3.11504 1.20438 4.63118 2.20113 5.65089C2.73274 6.21441 2.61313 6.29491 1.69611 5.95948C1.37715 5.85215 1.09805 5.77164 1.07147 5.81189C0.978444 5.90582 1.29741 7.12678 1.54992 7.6098C1.89546 8.28066 2.59984 8.9381 3.37066 9.3272L4.02188 9.6358L3.25105 9.64922C2.50681 9.64922 2.48023 9.66263 2.55997 9.94439C2.82577 10.8165 3.87569 11.7423 5.04522 12.1448L5.8692 12.4266L5.15154 12.8559C4.08833 13.4731 2.83906 13.822 1.58979 13.8488C0.991734 13.8622 0.5 13.9159 0.5 13.9561C0.5 14.0903 2.12139 14.8417 3.06499 15.1369C5.89578 16.009 9.25818 15.6333 11.7833 14.144C13.5775 13.084 15.3716 10.9775 16.2089 8.9381C16.6608 7.85131 17.1126 5.86556 17.1126 4.91294C17.1126 4.29575 17.1525 4.21525 17.8967 3.4773C18.3353 3.04795 18.7473 2.57835 18.8271 2.44418C18.96 2.18925 18.9467 2.18925 18.2689 2.41734C17.1392 2.81986 16.9797 2.76619 17.5379 2.16242C17.9499 1.73307 18.4416 0.954868 18.4416 0.726776C18.4416 0.686524 18.2423 0.75361 18.0164 0.874365C17.7771 1.00854 17.2455 1.20979 16.8468 1.33055L16.1292 1.55864L15.478 1.11587C15.1191 0.874365 14.6141 0.606021 14.3483 0.525518C13.6705 0.337677 12.6339 0.364511 12.0225 0.579186C10.3613 1.18296 9.31134 2.73936 9.43095 4.44334Z" fill="#478EFD"/>
</svg>
