<svg width="1080" height="1625" viewBox="0 0 1080 1625" fill="none" xmlns="http://www.w3.org/2000/svg">
<g opacity="0.4" filter="url(#filter0_f_2_1678)">
<circle cx="539.927" cy="311.929" r="727.44" transform="rotate(75 539.927 311.929)" fill="url(#paint0_angular_2_1678)"/>
</g>
<g filter="url(#filter1_b_2_1678)">
<rect y="136" width="1080" height="1325" rx="71" fill="url(#paint1_linear_2_1678)" fill-opacity="0.6"/>
</g>
<path d="M278.207 1607.34C278.128 1606.6 277.793 1606.02 277.202 1605.61C276.616 1605.19 275.855 1604.98 274.918 1604.98C274.259 1604.98 273.693 1605.08 273.222 1605.28C272.75 1605.48 272.389 1605.75 272.139 1606.09C271.889 1606.43 271.761 1606.82 271.756 1607.26C271.756 1607.62 271.838 1607.94 272.003 1608.2C272.173 1608.47 272.403 1608.7 272.693 1608.89C272.983 1609.07 273.304 1609.22 273.656 1609.35C274.009 1609.47 274.364 1609.58 274.722 1609.66L276.358 1610.07C277.017 1610.22 277.651 1610.43 278.259 1610.69C278.872 1610.95 279.42 1611.28 279.903 1611.68C280.392 1612.08 280.778 1612.56 281.062 1613.12C281.347 1613.68 281.489 1614.34 281.489 1615.1C281.489 1616.12 281.227 1617.02 280.705 1617.8C280.182 1618.57 279.426 1619.18 278.438 1619.62C277.455 1620.05 276.264 1620.26 274.866 1620.26C273.509 1620.26 272.33 1620.05 271.33 1619.63C270.335 1619.21 269.557 1618.6 268.994 1617.79C268.438 1616.99 268.136 1616 268.091 1614.84H271.202C271.247 1615.45 271.435 1615.96 271.764 1616.36C272.094 1616.76 272.523 1617.07 273.051 1617.26C273.585 1617.46 274.182 1617.56 274.841 1617.56C275.528 1617.56 276.131 1617.46 276.648 1617.26C277.17 1617.05 277.58 1616.76 277.875 1616.39C278.17 1616.01 278.321 1615.57 278.327 1615.07C278.321 1614.62 278.188 1614.24 277.926 1613.95C277.665 1613.65 277.298 1613.4 276.827 1613.2C276.361 1612.99 275.815 1612.81 275.19 1612.65L273.205 1612.14C271.767 1611.77 270.631 1611.21 269.795 1610.46C268.966 1609.71 268.551 1608.7 268.551 1607.45C268.551 1606.43 268.83 1605.53 269.386 1604.75C269.949 1603.98 270.713 1603.38 271.679 1602.95C272.645 1602.52 273.739 1602.31 274.96 1602.31C276.199 1602.31 277.284 1602.52 278.216 1602.95C279.153 1603.38 279.889 1603.97 280.423 1604.74C280.957 1605.49 281.233 1606.36 281.25 1607.34H278.207ZM289.881 1620.26C288.575 1620.26 287.452 1619.97 286.515 1619.39C285.583 1618.82 284.864 1618.03 284.359 1617.02C283.859 1616 283.609 1614.83 283.609 1613.51C283.609 1612.18 283.864 1611 284.376 1609.99C284.887 1608.96 285.609 1608.17 286.54 1607.6C287.478 1607.03 288.586 1606.74 289.864 1606.74C290.927 1606.74 291.867 1606.93 292.685 1607.33C293.509 1607.71 294.165 1608.26 294.654 1608.97C295.143 1609.68 295.421 1610.5 295.489 1611.44H292.54C292.421 1610.81 292.137 1610.29 291.688 1609.87C291.245 1609.44 290.651 1609.23 289.907 1609.23C289.276 1609.23 288.722 1609.4 288.245 1609.74C287.768 1610.07 287.396 1610.56 287.129 1611.19C286.867 1611.82 286.737 1612.57 286.737 1613.45C286.737 1614.35 286.867 1615.11 287.129 1615.76C287.39 1616.39 287.756 1616.88 288.228 1617.23C288.705 1617.57 289.265 1617.74 289.907 1617.74C290.362 1617.74 290.768 1617.66 291.126 1617.49C291.489 1617.31 291.793 1617.06 292.038 1616.73C292.282 1616.4 292.45 1616 292.54 1615.53H295.489C295.415 1616.45 295.143 1617.27 294.671 1617.99C294.2 1618.7 293.558 1619.26 292.745 1619.66C291.933 1620.06 290.978 1620.26 289.881 1620.26ZM301.79 1620.26C300.96 1620.26 300.213 1620.12 299.548 1619.82C298.889 1619.52 298.366 1619.08 297.98 1618.49C297.599 1617.91 297.409 1617.18 297.409 1616.33C297.409 1615.59 297.545 1614.98 297.818 1614.49C298.091 1614.01 298.463 1613.62 298.935 1613.34C299.406 1613.05 299.938 1612.83 300.528 1612.68C301.125 1612.53 301.741 1612.41 302.378 1612.35C303.145 1612.27 303.767 1612.2 304.244 1612.13C304.722 1612.07 305.068 1611.96 305.284 1611.83C305.506 1611.68 305.616 1611.47 305.616 1611.17V1611.12C305.616 1610.48 305.426 1609.98 305.045 1609.63C304.665 1609.28 304.116 1609.1 303.401 1609.1C302.645 1609.1 302.045 1609.26 301.602 1609.59C301.165 1609.92 300.869 1610.31 300.716 1610.76L297.835 1610.35C298.063 1609.56 298.438 1608.89 298.96 1608.36C299.483 1607.82 300.122 1607.41 300.878 1607.15C301.634 1606.88 302.469 1606.74 303.384 1606.74C304.014 1606.74 304.642 1606.81 305.267 1606.96C305.892 1607.11 306.463 1607.35 306.98 1607.69C307.497 1608.03 307.912 1608.49 308.224 1609.07C308.543 1609.64 308.702 1610.37 308.702 1611.24V1620H305.736V1618.2H305.634C305.446 1618.57 305.182 1618.91 304.841 1619.22C304.506 1619.54 304.082 1619.79 303.571 1619.98C303.065 1620.17 302.472 1620.26 301.79 1620.26ZM302.591 1618C303.21 1618 303.747 1617.87 304.202 1617.63C304.656 1617.38 305.006 1617.05 305.25 1616.64C305.5 1616.23 305.625 1615.79 305.625 1615.3V1613.76C305.528 1613.84 305.364 1613.91 305.131 1613.98C304.903 1614.05 304.648 1614.11 304.364 1614.16C304.08 1614.21 303.798 1614.26 303.52 1614.3C303.241 1614.34 303 1614.37 302.795 1614.4C302.335 1614.46 301.923 1614.57 301.56 1614.71C301.196 1614.85 300.909 1615.05 300.699 1615.3C300.489 1615.55 300.384 1615.88 300.384 1616.28C300.384 1616.84 300.591 1617.27 301.006 1617.56C301.42 1617.85 301.949 1618 302.591 1618ZM314.889 1612.33V1620H311.804V1606.91H314.753V1609.13H314.906C315.207 1608.4 315.688 1607.82 316.347 1607.39C317.011 1606.95 317.832 1606.74 318.81 1606.74C319.713 1606.74 320.5 1606.93 321.17 1607.32C321.847 1607.7 322.369 1608.26 322.739 1609C323.114 1609.73 323.298 1610.62 323.293 1611.66V1620H320.207V1612.14C320.207 1611.27 319.98 1610.58 319.526 1610.09C319.077 1609.59 318.455 1609.35 317.659 1609.35C317.119 1609.35 316.639 1609.47 316.219 1609.7C315.804 1609.94 315.477 1610.28 315.239 1610.72C315.006 1611.16 314.889 1611.7 314.889 1612.33ZM338.919 1606.91V1609.3H331.393V1606.91H338.919ZM333.251 1603.77H336.337V1616.06C336.337 1616.48 336.399 1616.8 336.524 1617.02C336.655 1617.23 336.825 1617.38 337.036 1617.46C337.246 1617.54 337.479 1617.58 337.734 1617.58C337.928 1617.58 338.104 1617.57 338.263 1617.54C338.428 1617.51 338.553 1617.48 338.638 1617.46L339.158 1619.87C338.993 1619.93 338.757 1619.99 338.45 1620.06C338.149 1620.13 337.78 1620.17 337.342 1620.18C336.57 1620.2 335.874 1620.09 335.254 1619.83C334.635 1619.57 334.143 1619.16 333.78 1618.62C333.422 1618.07 333.246 1617.39 333.251 1616.57V1603.77ZM344.866 1612.33V1620H341.781V1602.55H344.798V1609.13H344.951C345.258 1608.39 345.732 1607.81 346.374 1607.39C347.022 1606.95 347.846 1606.74 348.846 1606.74C349.755 1606.74 350.548 1606.93 351.224 1607.31C351.9 1607.69 352.423 1608.25 352.792 1608.98C353.167 1609.71 353.354 1610.61 353.354 1611.66V1620H350.269V1612.14C350.269 1611.26 350.042 1610.58 349.587 1610.09C349.138 1609.59 348.508 1609.35 347.695 1609.35C347.15 1609.35 346.661 1609.47 346.229 1609.7C345.803 1609.94 345.468 1610.28 345.224 1610.72C344.985 1611.16 344.866 1611.7 344.866 1612.33ZM362.295 1620.26C360.982 1620.26 359.849 1619.98 358.894 1619.44C357.945 1618.89 357.215 1618.11 356.704 1617.1C356.192 1616.09 355.937 1614.9 355.937 1613.53C355.937 1612.18 356.192 1611 356.704 1609.99C357.221 1608.96 357.942 1608.17 358.869 1607.6C359.795 1607.03 360.883 1606.74 362.133 1606.74C362.94 1606.74 363.701 1606.87 364.417 1607.13C365.138 1607.39 365.775 1607.78 366.326 1608.32C366.883 1608.86 367.32 1609.55 367.638 1610.39C367.957 1611.22 368.116 1612.2 368.116 1613.35V1614.3H357.386V1612.22H365.158C365.153 1611.63 365.025 1611.1 364.775 1610.64C364.525 1610.18 364.175 1609.81 363.727 1609.54C363.283 1609.28 362.766 1609.14 362.175 1609.14C361.545 1609.14 360.991 1609.3 360.513 1609.6C360.036 1609.9 359.664 1610.3 359.397 1610.8C359.136 1611.28 359.002 1611.82 358.996 1612.41V1614.22C358.996 1614.98 359.136 1615.64 359.414 1616.18C359.692 1616.72 360.082 1617.14 360.582 1617.43C361.082 1617.71 361.667 1617.85 362.337 1617.85C362.786 1617.85 363.192 1617.79 363.556 1617.66C363.92 1617.53 364.235 1617.34 364.502 1617.09C364.769 1616.84 364.971 1616.53 365.107 1616.16L367.988 1616.49C367.806 1617.25 367.46 1617.91 366.948 1618.48C366.442 1619.05 365.795 1619.48 365.005 1619.8C364.215 1620.1 363.312 1620.26 362.295 1620.26ZM383.318 1614.14H386.182L387.878 1616.34L389.088 1617.77L391.994 1621.5H388.926L386.949 1618.99L386.105 1617.8L383.318 1614.14ZM392.412 1611.27C392.412 1613.15 392.06 1614.76 391.355 1616.11C390.656 1617.44 389.702 1618.46 388.491 1619.17C387.287 1619.88 385.92 1620.24 384.392 1620.24C382.864 1620.24 381.494 1619.88 380.284 1619.17C379.08 1618.46 378.125 1617.43 377.42 1616.1C376.722 1614.76 376.372 1613.15 376.372 1611.27C376.372 1609.39 376.722 1607.78 377.42 1606.45C378.125 1605.11 379.08 1604.08 380.284 1603.37C381.494 1602.66 382.864 1602.31 384.392 1602.31C385.92 1602.31 387.287 1602.66 388.491 1603.37C389.702 1604.08 390.656 1605.11 391.355 1606.45C392.06 1607.78 392.412 1609.39 392.412 1611.27ZM389.233 1611.27C389.233 1609.95 389.026 1608.83 388.611 1607.92C388.202 1607.01 387.634 1606.32 386.906 1605.85C386.179 1605.38 385.341 1605.14 384.392 1605.14C383.443 1605.14 382.605 1605.38 381.878 1605.85C381.151 1606.32 380.58 1607.01 380.165 1607.92C379.756 1608.83 379.551 1609.95 379.551 1611.27C379.551 1612.6 379.756 1613.72 380.165 1614.63C380.58 1615.54 381.151 1616.23 381.878 1616.7C382.605 1617.17 383.443 1617.4 384.392 1617.4C385.341 1617.4 386.179 1617.17 386.906 1616.7C387.634 1616.23 388.202 1615.54 388.611 1614.63C389.026 1613.72 389.233 1612.6 389.233 1611.27ZM395.425 1620V1602.55H401.97C403.311 1602.55 404.436 1602.78 405.345 1603.24C406.26 1603.71 406.95 1604.36 407.416 1605.2C407.888 1606.04 408.124 1607.01 408.124 1608.13C408.124 1609.25 407.885 1610.22 407.408 1611.04C406.936 1611.86 406.24 1612.49 405.32 1612.94C404.399 1613.39 403.268 1613.61 401.928 1613.61H397.266V1610.98H401.501C402.286 1610.98 402.928 1610.87 403.428 1610.66C403.928 1610.44 404.297 1610.12 404.536 1609.7C404.78 1609.27 404.902 1608.75 404.902 1608.13C404.902 1607.51 404.78 1606.98 404.536 1606.54C404.291 1606.1 403.919 1605.76 403.419 1605.54C402.919 1605.3 402.274 1605.19 401.484 1605.19H398.587V1620H395.425ZM404.442 1612.09L408.763 1620H405.234L400.99 1612.09H404.442ZM422.561 1620.26C421.254 1620.26 420.132 1619.97 419.195 1619.39C418.263 1618.82 417.544 1618.03 417.038 1617.02C416.538 1616 416.288 1614.83 416.288 1613.51C416.288 1612.18 416.544 1611 417.055 1609.99C417.567 1608.96 418.288 1608.17 419.22 1607.6C420.158 1607.03 421.266 1606.74 422.544 1606.74C423.607 1606.74 424.547 1606.93 425.365 1607.33C426.189 1607.71 426.845 1608.26 427.334 1608.97C427.822 1609.68 428.101 1610.5 428.169 1611.44H425.22C425.101 1610.81 424.817 1610.29 424.368 1609.87C423.925 1609.44 423.331 1609.23 422.587 1609.23C421.956 1609.23 421.402 1609.4 420.925 1609.74C420.447 1610.07 420.075 1610.56 419.808 1611.19C419.547 1611.82 419.416 1612.57 419.416 1613.45C419.416 1614.35 419.547 1615.11 419.808 1615.76C420.07 1616.39 420.436 1616.88 420.908 1617.23C421.385 1617.57 421.945 1617.74 422.587 1617.74C423.041 1617.74 423.447 1617.66 423.805 1617.49C424.169 1617.31 424.473 1617.06 424.717 1616.73C424.962 1616.4 425.129 1616 425.22 1615.53H428.169C428.095 1616.45 427.822 1617.27 427.351 1617.99C426.879 1618.7 426.237 1619.26 425.425 1619.66C424.612 1620.06 423.658 1620.26 422.561 1620.26ZM436.413 1620.26C435.134 1620.26 434.026 1619.97 433.089 1619.41C432.151 1618.85 431.424 1618.06 430.907 1617.05C430.396 1616.04 430.14 1614.86 430.14 1613.51C430.14 1612.15 430.396 1610.97 430.907 1609.95C431.424 1608.93 432.151 1608.14 433.089 1607.58C434.026 1607.02 435.134 1606.74 436.413 1606.74C437.691 1606.74 438.799 1607.02 439.737 1607.58C440.674 1608.14 441.398 1608.93 441.91 1609.95C442.427 1610.97 442.685 1612.15 442.685 1613.51C442.685 1614.86 442.427 1616.04 441.91 1617.05C441.398 1618.06 440.674 1618.85 439.737 1619.41C438.799 1619.97 437.691 1620.26 436.413 1620.26ZM436.43 1617.78C437.123 1617.78 437.702 1617.59 438.168 1617.21C438.634 1616.83 438.981 1616.31 439.208 1615.66C439.441 1615.01 439.558 1614.29 439.558 1613.5C439.558 1612.7 439.441 1611.97 439.208 1611.32C438.981 1610.67 438.634 1610.15 438.168 1609.76C437.702 1609.38 437.123 1609.18 436.43 1609.18C435.719 1609.18 435.129 1609.38 434.657 1609.76C434.191 1610.15 433.842 1610.67 433.609 1611.32C433.381 1611.97 433.268 1612.7 433.268 1613.5C433.268 1614.29 433.381 1615.01 433.609 1615.66C433.842 1616.31 434.191 1616.83 434.657 1617.21C435.129 1617.59 435.719 1617.78 436.43 1617.78ZM450.162 1620.23C449.134 1620.23 448.213 1619.97 447.401 1619.44C446.588 1618.91 445.946 1618.14 445.474 1617.14C445.003 1616.13 444.767 1614.91 444.767 1613.47C444.767 1612.02 445.006 1610.79 445.483 1609.79C445.966 1608.78 446.616 1608.03 447.435 1607.51C448.253 1607 449.165 1606.74 450.17 1606.74C450.938 1606.74 451.568 1606.87 452.062 1607.13C452.557 1607.39 452.949 1607.7 453.239 1608.06C453.528 1608.42 453.753 1608.76 453.912 1609.07H454.04V1602.55H457.134V1620H454.099V1617.94H453.912C453.753 1618.26 453.523 1618.59 453.222 1618.95C452.92 1619.3 452.523 1619.61 452.028 1619.86C451.534 1620.11 450.912 1620.23 450.162 1620.23ZM451.023 1617.7C451.676 1617.7 452.233 1617.52 452.693 1617.17C453.153 1616.81 453.503 1616.32 453.741 1615.68C453.98 1615.04 454.099 1614.3 454.099 1613.45C454.099 1612.61 453.98 1611.87 453.741 1611.25C453.509 1610.62 453.162 1610.14 452.702 1609.79C452.247 1609.44 451.688 1609.27 451.023 1609.27C450.335 1609.27 449.761 1609.45 449.301 1609.81C448.841 1610.16 448.494 1610.66 448.261 1611.29C448.028 1611.92 447.912 1612.64 447.912 1613.45C447.912 1614.27 448.028 1615 448.261 1615.64C448.5 1616.28 448.849 1616.78 449.31 1617.15C449.776 1617.52 450.347 1617.7 451.023 1617.7ZM466.217 1620.26C464.904 1620.26 463.771 1619.98 462.816 1619.44C461.867 1618.89 461.137 1618.11 460.626 1617.1C460.114 1616.09 459.859 1614.9 459.859 1613.53C459.859 1612.18 460.114 1611 460.626 1609.99C461.143 1608.96 461.864 1608.17 462.79 1607.6C463.717 1607.03 464.805 1606.74 466.055 1606.74C466.862 1606.74 467.623 1606.87 468.339 1607.13C469.06 1607.39 469.697 1607.78 470.248 1608.32C470.805 1608.86 471.242 1609.55 471.56 1610.39C471.879 1611.22 472.038 1612.2 472.038 1613.35V1614.3H461.308V1612.22H469.08C469.075 1611.63 468.947 1611.1 468.697 1610.64C468.447 1610.18 468.097 1609.81 467.648 1609.54C467.205 1609.28 466.688 1609.14 466.097 1609.14C465.467 1609.14 464.913 1609.3 464.435 1609.6C463.958 1609.9 463.586 1610.3 463.319 1610.8C463.058 1611.28 462.924 1611.82 462.918 1612.41V1614.22C462.918 1614.98 463.058 1615.64 463.336 1616.18C463.614 1616.72 464.004 1617.14 464.504 1617.43C465.004 1617.71 465.589 1617.85 466.259 1617.85C466.708 1617.85 467.114 1617.79 467.478 1617.66C467.842 1617.53 468.157 1617.34 468.424 1617.09C468.691 1616.84 468.893 1616.53 469.029 1616.16L471.91 1616.49C471.728 1617.25 471.381 1617.91 470.87 1618.48C470.364 1619.05 469.717 1619.48 468.927 1619.8C468.137 1620.1 467.234 1620.26 466.217 1620.26ZM487.138 1606.91V1609.3H479.612V1606.91H487.138ZM481.47 1603.77H484.555V1616.06C484.555 1616.48 484.618 1616.8 484.743 1617.02C484.874 1617.23 485.044 1617.38 485.254 1617.46C485.464 1617.54 485.697 1617.58 485.953 1617.58C486.146 1617.58 486.322 1617.57 486.482 1617.54C486.646 1617.51 486.771 1617.48 486.857 1617.46L487.376 1619.87C487.212 1619.93 486.976 1619.99 486.669 1620.06C486.368 1620.13 485.999 1620.17 485.561 1620.18C484.788 1620.2 484.092 1620.09 483.473 1619.83C482.854 1619.57 482.362 1619.16 481.999 1618.62C481.641 1618.07 481.464 1617.39 481.47 1616.57V1603.77ZM495.288 1620.26C494.009 1620.26 492.901 1619.97 491.964 1619.41C491.026 1618.85 490.299 1618.06 489.782 1617.05C489.271 1616.04 489.015 1614.86 489.015 1613.51C489.015 1612.15 489.271 1610.97 489.782 1609.95C490.299 1608.93 491.026 1608.14 491.964 1607.58C492.901 1607.02 494.009 1606.74 495.288 1606.74C496.566 1606.74 497.674 1607.02 498.612 1607.58C499.549 1608.14 500.273 1608.93 500.785 1609.95C501.302 1610.97 501.56 1612.15 501.56 1613.51C501.56 1614.86 501.302 1616.04 500.785 1617.05C500.273 1618.06 499.549 1618.85 498.612 1619.41C497.674 1619.97 496.566 1620.26 495.288 1620.26ZM495.305 1617.78C495.998 1617.78 496.577 1617.59 497.043 1617.21C497.509 1616.83 497.856 1616.31 498.083 1615.66C498.316 1615.01 498.433 1614.29 498.433 1613.5C498.433 1612.7 498.316 1611.97 498.083 1611.32C497.856 1610.67 497.509 1610.15 497.043 1609.76C496.577 1609.38 495.998 1609.18 495.305 1609.18C494.594 1609.18 494.004 1609.38 493.532 1609.76C493.066 1610.15 492.717 1610.67 492.484 1611.32C492.256 1611.97 492.143 1612.7 492.143 1613.5C492.143 1614.29 492.256 1615.01 492.484 1615.66C492.717 1616.31 493.066 1616.83 493.532 1617.21C494.004 1617.59 494.594 1617.78 495.305 1617.78ZM521.825 1606.91L517.163 1620H513.754L509.092 1606.91H512.382L515.391 1616.63H515.527L518.544 1606.91H521.825ZM523.96 1620V1606.91H527.045V1620H523.96ZM525.511 1605.05C525.023 1605.05 524.602 1604.89 524.25 1604.57C523.898 1604.24 523.722 1603.84 523.722 1603.38C523.722 1602.91 523.898 1602.52 524.25 1602.2C524.602 1601.87 525.023 1601.7 525.511 1601.7C526.006 1601.7 526.426 1601.87 526.773 1602.2C527.125 1602.52 527.301 1602.91 527.301 1603.38C527.301 1603.84 527.125 1604.24 526.773 1604.57C526.426 1604.89 526.006 1605.05 525.511 1605.05ZM536.013 1620.26C534.701 1620.26 533.567 1619.98 532.613 1619.44C531.664 1618.89 530.934 1618.11 530.423 1617.1C529.911 1616.09 529.656 1614.9 529.656 1613.53C529.656 1612.18 529.911 1611 530.423 1609.99C530.94 1608.96 531.661 1608.17 532.587 1607.6C533.513 1607.03 534.602 1606.74 535.852 1606.74C536.658 1606.74 537.42 1606.87 538.136 1607.13C538.857 1607.39 539.494 1607.78 540.045 1608.32C540.602 1608.86 541.039 1609.55 541.357 1610.39C541.675 1611.22 541.835 1612.2 541.835 1613.35V1614.3H531.104V1612.22H538.877C538.871 1611.63 538.744 1611.1 538.494 1610.64C538.244 1610.18 537.894 1609.81 537.445 1609.54C537.002 1609.28 536.485 1609.14 535.894 1609.14C535.263 1609.14 534.71 1609.3 534.232 1609.6C533.755 1609.9 533.383 1610.3 533.116 1610.8C532.854 1611.28 532.721 1611.82 532.715 1612.41V1614.22C532.715 1614.98 532.854 1615.64 533.133 1616.18C533.411 1616.72 533.8 1617.14 534.3 1617.43C534.8 1617.71 535.386 1617.85 536.056 1617.85C536.505 1617.85 536.911 1617.79 537.275 1617.66C537.638 1617.53 537.954 1617.34 538.221 1617.09C538.488 1616.84 538.69 1616.53 538.826 1616.16L541.707 1616.49C541.525 1617.25 541.178 1617.91 540.667 1618.48C540.161 1619.05 539.513 1619.48 538.724 1619.8C537.934 1620.1 537.031 1620.26 536.013 1620.26ZM547.076 1620L543.377 1606.91H546.522L548.823 1616.11H548.942L551.295 1606.91H554.406L556.758 1616.06H556.886L559.153 1606.91H562.306L558.599 1620H555.386L552.931 1611.15H552.752L550.298 1620H547.076ZM570.55 1620V1602.55H573.635V1609.07H573.763C573.922 1608.76 574.146 1608.42 574.436 1608.06C574.726 1607.7 575.118 1607.39 575.612 1607.13C576.107 1606.87 576.737 1606.74 577.504 1606.74C578.516 1606.74 579.428 1607 580.24 1607.51C581.058 1608.03 581.706 1608.78 582.183 1609.79C582.666 1610.79 582.908 1612.02 582.908 1613.47C582.908 1614.91 582.672 1616.13 582.2 1617.14C581.729 1618.14 581.087 1618.91 580.274 1619.44C579.462 1619.97 578.541 1620.23 577.513 1620.23C576.763 1620.23 576.141 1620.11 575.646 1619.86C575.152 1619.61 574.754 1619.3 574.453 1618.95C574.158 1618.59 573.928 1618.26 573.763 1617.94H573.584V1620H570.55ZM573.575 1613.45C573.575 1614.3 573.695 1615.04 573.933 1615.68C574.178 1616.32 574.527 1616.81 574.982 1617.17C575.442 1617.52 575.999 1617.7 576.652 1617.7C577.334 1617.7 577.905 1617.52 578.365 1617.15C578.825 1616.78 579.172 1616.28 579.405 1615.64C579.643 1615 579.763 1614.27 579.763 1613.45C579.763 1612.64 579.646 1611.92 579.413 1611.29C579.18 1610.66 578.834 1610.16 578.374 1609.81C577.913 1609.45 577.339 1609.27 576.652 1609.27C575.993 1609.27 575.433 1609.44 574.973 1609.79C574.513 1610.14 574.163 1610.62 573.925 1611.25C573.692 1611.87 573.575 1612.61 573.575 1613.45ZM587.003 1624.91C586.582 1624.91 586.193 1624.88 585.835 1624.81C585.483 1624.74 585.202 1624.67 584.991 1624.59L585.707 1622.18C586.156 1622.31 586.557 1622.38 586.909 1622.37C587.261 1622.36 587.571 1622.25 587.838 1622.04C588.111 1621.83 588.341 1621.47 588.528 1620.98L588.793 1620.27L584.045 1606.91H587.318L590.335 1616.8H590.472L593.497 1606.91H596.778L591.537 1621.59C591.293 1622.28 590.969 1622.87 590.565 1623.37C590.162 1623.87 589.668 1624.25 589.082 1624.51C588.503 1624.78 587.81 1624.91 587.003 1624.91ZM606.784 1624.91C606.364 1624.91 605.974 1624.88 605.616 1624.81C605.264 1624.74 604.983 1624.67 604.773 1624.59L605.489 1622.18C605.938 1622.31 606.338 1622.38 606.69 1622.37C607.043 1622.36 607.352 1622.25 607.619 1622.04C607.892 1621.83 608.122 1621.47 608.31 1620.98L608.574 1620.27L603.827 1606.91H607.099L610.116 1616.8H610.253L613.278 1606.91H616.56L611.318 1621.59C611.074 1622.28 610.75 1622.87 610.347 1623.37C609.943 1623.87 609.449 1624.25 608.864 1624.51C608.284 1624.78 607.591 1624.91 606.784 1624.91ZM623.96 1620.26C622.681 1620.26 621.573 1619.97 620.636 1619.41C619.698 1618.85 618.971 1618.06 618.454 1617.05C617.942 1616.04 617.687 1614.86 617.687 1613.51C617.687 1612.15 617.942 1610.97 618.454 1609.95C618.971 1608.93 619.698 1608.14 620.636 1607.58C621.573 1607.02 622.681 1606.74 623.96 1606.74C625.238 1606.74 626.346 1607.02 627.283 1607.58C628.221 1608.14 628.945 1608.93 629.457 1609.95C629.974 1610.97 630.232 1612.15 630.232 1613.51C630.232 1614.86 629.974 1616.04 629.457 1617.05C628.945 1618.06 628.221 1618.85 627.283 1619.41C626.346 1619.97 625.238 1620.26 623.96 1620.26ZM623.977 1617.78C624.67 1617.78 625.249 1617.59 625.715 1617.21C626.181 1616.83 626.528 1616.31 626.755 1615.66C626.988 1615.01 627.104 1614.29 627.104 1613.5C627.104 1612.7 626.988 1611.97 626.755 1611.32C626.528 1610.67 626.181 1610.15 625.715 1609.76C625.249 1609.38 624.67 1609.18 623.977 1609.18C623.266 1609.18 622.675 1609.38 622.204 1609.76C621.738 1610.15 621.388 1610.67 621.156 1611.32C620.928 1611.97 620.815 1612.7 620.815 1613.5C620.815 1614.29 620.928 1615.01 621.156 1615.66C621.388 1616.31 621.738 1616.83 622.204 1617.21C622.675 1617.59 623.266 1617.78 623.977 1617.78ZM641.195 1614.49V1606.91H644.28V1620H641.288V1617.67H641.152C640.857 1618.41 640.371 1619.01 639.695 1619.47C639.024 1619.94 638.197 1620.17 637.214 1620.17C636.357 1620.17 635.598 1619.98 634.939 1619.6C634.286 1619.21 633.774 1618.65 633.405 1617.92C633.036 1617.18 632.851 1616.29 632.851 1615.24V1606.91H635.936V1614.77C635.936 1615.6 636.163 1616.26 636.618 1616.74C637.072 1617.23 637.669 1617.48 638.408 1617.48C638.862 1617.48 639.303 1617.37 639.729 1617.14C640.155 1616.92 640.504 1616.59 640.777 1616.16C641.055 1615.71 641.195 1615.16 641.195 1614.49ZM647.452 1620V1606.91H650.444V1609.09H650.58C650.819 1608.34 651.228 1607.75 651.808 1607.34C652.393 1606.93 653.06 1606.72 653.81 1606.72C653.981 1606.72 654.171 1606.73 654.381 1606.75C654.597 1606.76 654.776 1606.78 654.918 1606.81V1609.64C654.788 1609.6 654.58 1609.56 654.296 1609.53C654.018 1609.49 653.748 1609.47 653.487 1609.47C652.924 1609.47 652.418 1609.59 651.969 1609.83C651.526 1610.07 651.177 1610.4 650.921 1610.83C650.665 1611.26 650.538 1611.75 650.538 1612.3V1620H647.452ZM668.631 1620.26C667.325 1620.26 666.202 1619.97 665.265 1619.39C664.333 1618.82 663.614 1618.03 663.109 1617.02C662.609 1616 662.359 1614.83 662.359 1613.51C662.359 1612.18 662.614 1611 663.126 1609.99C663.637 1608.96 664.359 1608.17 665.29 1607.6C666.228 1607.03 667.336 1606.74 668.614 1606.74C669.677 1606.74 670.617 1606.93 671.435 1607.33C672.259 1607.71 672.915 1608.26 673.404 1608.97C673.893 1609.68 674.171 1610.5 674.239 1611.44H671.29C671.171 1610.81 670.887 1610.29 670.438 1609.87C669.995 1609.44 669.401 1609.23 668.657 1609.23C668.026 1609.23 667.472 1609.4 666.995 1609.74C666.518 1610.07 666.146 1610.56 665.879 1611.19C665.617 1611.82 665.487 1612.57 665.487 1613.45C665.487 1614.35 665.617 1615.11 665.879 1615.76C666.14 1616.39 666.506 1616.88 666.978 1617.23C667.455 1617.57 668.015 1617.74 668.657 1617.74C669.112 1617.74 669.518 1617.66 669.876 1617.49C670.239 1617.31 670.543 1617.06 670.788 1616.73C671.032 1616.4 671.2 1616 671.29 1615.53H674.239C674.165 1616.45 673.893 1617.27 673.421 1617.99C672.95 1618.7 672.308 1619.26 671.495 1619.66C670.683 1620.06 669.728 1620.26 668.631 1620.26ZM676.773 1620V1606.91H679.764V1609.09H679.901C680.139 1608.34 680.548 1607.75 681.128 1607.34C681.713 1606.93 682.381 1606.72 683.131 1606.72C683.301 1606.72 683.491 1606.73 683.702 1606.75C683.918 1606.76 684.097 1606.78 684.239 1606.81V1609.64C684.108 1609.6 683.901 1609.56 683.616 1609.53C683.338 1609.49 683.068 1609.47 682.807 1609.47C682.244 1609.47 681.739 1609.59 681.29 1609.83C680.847 1610.07 680.497 1610.4 680.241 1610.83C679.986 1611.26 679.858 1611.75 679.858 1612.3V1620H676.773ZM688.604 1624.91C688.184 1624.91 687.795 1624.88 687.437 1624.81C687.085 1624.74 686.803 1624.67 686.593 1624.59L687.309 1622.18C687.758 1622.31 688.158 1622.38 688.511 1622.37C688.863 1622.36 689.173 1622.25 689.44 1622.04C689.712 1621.83 689.942 1621.47 690.13 1620.98L690.394 1620.27L685.647 1606.91H688.92L691.937 1616.8H692.073L695.099 1606.91H698.38L693.138 1621.59C692.894 1622.28 692.57 1622.87 692.167 1623.37C691.763 1623.87 691.269 1624.25 690.684 1624.51C690.104 1624.78 689.411 1624.91 688.604 1624.91ZM700.515 1624.91V1606.91H703.549V1609.07H703.728C703.887 1608.76 704.112 1608.42 704.401 1608.06C704.691 1607.7 705.083 1607.39 705.577 1607.13C706.072 1606.87 706.702 1606.74 707.469 1606.74C708.481 1606.74 709.393 1607 710.205 1607.51C711.023 1608.03 711.671 1608.78 712.148 1609.79C712.631 1610.79 712.873 1612.02 712.873 1613.47C712.873 1614.91 712.637 1616.13 712.165 1617.14C711.694 1618.14 711.052 1618.91 710.239 1619.44C709.427 1619.97 708.506 1620.23 707.478 1620.23C706.728 1620.23 706.106 1620.11 705.612 1619.86C705.117 1619.61 704.719 1619.3 704.418 1618.95C704.123 1618.59 703.893 1618.26 703.728 1617.94H703.6V1624.91H700.515ZM703.54 1613.45C703.54 1614.3 703.66 1615.04 703.898 1615.68C704.143 1616.32 704.492 1616.81 704.947 1617.17C705.407 1617.52 705.964 1617.7 706.617 1617.7C707.299 1617.7 707.87 1617.52 708.33 1617.15C708.79 1616.78 709.137 1616.28 709.37 1615.64C709.609 1615 709.728 1614.27 709.728 1613.45C709.728 1612.64 709.612 1611.92 709.379 1611.29C709.146 1610.66 708.799 1610.16 708.339 1609.81C707.879 1609.45 707.305 1609.27 706.617 1609.27C705.958 1609.27 705.398 1609.44 704.938 1609.79C704.478 1610.14 704.129 1610.62 703.89 1611.25C703.657 1611.87 703.54 1612.61 703.54 1613.45ZM722.052 1606.91V1609.3H714.526V1606.91H722.052ZM716.384 1603.77H719.469V1616.06C719.469 1616.48 719.532 1616.8 719.657 1617.02C719.788 1617.23 719.958 1617.38 720.168 1617.46C720.379 1617.54 720.612 1617.58 720.867 1617.58C721.06 1617.58 721.237 1617.57 721.396 1617.54C721.56 1617.51 721.685 1617.48 721.771 1617.46L722.29 1619.87C722.126 1619.93 721.89 1619.99 721.583 1620.06C721.282 1620.13 720.913 1620.17 720.475 1620.18C719.702 1620.2 719.006 1620.09 718.387 1619.83C717.768 1619.57 717.276 1619.16 716.913 1618.62C716.555 1618.07 716.379 1617.39 716.384 1616.57V1603.77ZM730.202 1620.26C728.923 1620.26 727.815 1619.97 726.878 1619.41C725.94 1618.85 725.213 1618.06 724.696 1617.05C724.185 1616.04 723.929 1614.86 723.929 1613.51C723.929 1612.15 724.185 1610.97 724.696 1609.95C725.213 1608.93 725.94 1608.14 726.878 1607.58C727.815 1607.02 728.923 1606.74 730.202 1606.74C731.48 1606.74 732.588 1607.02 733.526 1607.58C734.463 1608.14 735.188 1608.93 735.699 1609.95C736.216 1610.97 736.474 1612.15 736.474 1613.51C736.474 1614.86 736.216 1616.04 735.699 1617.05C735.188 1618.06 734.463 1618.85 733.526 1619.41C732.588 1619.97 731.48 1620.26 730.202 1620.26ZM730.219 1617.78C730.912 1617.78 731.491 1617.59 731.957 1617.21C732.423 1616.83 732.77 1616.31 732.997 1615.66C733.23 1615.01 733.347 1614.29 733.347 1613.5C733.347 1612.7 733.23 1611.97 732.997 1611.32C732.77 1610.67 732.423 1610.15 731.957 1609.76C731.491 1609.38 730.912 1609.18 730.219 1609.18C729.509 1609.18 728.918 1609.38 728.446 1609.76C727.98 1610.15 727.631 1610.67 727.398 1611.32C727.17 1611.97 727.057 1612.7 727.057 1613.5C727.057 1614.29 727.17 1615.01 727.398 1615.66C727.631 1616.31 727.98 1616.83 728.446 1617.21C728.918 1617.59 729.509 1617.78 730.219 1617.78ZM747.748 1620L744.049 1606.91H747.194L749.495 1616.11H749.614L751.967 1606.91H755.077L757.43 1616.06H757.558L759.825 1606.91H762.978L759.271 1620H756.058L753.603 1611.15H753.424L750.969 1620H747.748ZM768.899 1620.26C768.07 1620.26 767.322 1620.12 766.658 1619.82C765.999 1619.52 765.476 1619.08 765.089 1618.49C764.709 1617.91 764.518 1617.18 764.518 1616.33C764.518 1615.59 764.655 1614.98 764.928 1614.49C765.2 1614.01 765.572 1613.62 766.044 1613.34C766.516 1613.05 767.047 1612.83 767.638 1612.68C768.234 1612.53 768.851 1612.41 769.487 1612.35C770.254 1612.27 770.876 1612.2 771.354 1612.13C771.831 1612.07 772.178 1611.96 772.393 1611.83C772.615 1611.68 772.726 1611.47 772.726 1611.17V1611.12C772.726 1610.48 772.536 1609.98 772.155 1609.63C771.774 1609.28 771.226 1609.1 770.51 1609.1C769.754 1609.1 769.155 1609.26 768.712 1609.59C768.274 1609.92 767.979 1610.31 767.825 1610.76L764.945 1610.35C765.172 1609.56 765.547 1608.89 766.07 1608.36C766.592 1607.82 767.232 1607.41 767.987 1607.15C768.743 1606.88 769.578 1606.74 770.493 1606.74C771.124 1606.74 771.751 1606.81 772.376 1606.96C773.001 1607.11 773.572 1607.35 774.089 1607.69C774.607 1608.03 775.021 1608.49 775.334 1609.07C775.652 1609.64 775.811 1610.37 775.811 1611.24V1620H772.845V1618.2H772.743C772.555 1618.57 772.291 1618.91 771.95 1619.22C771.615 1619.54 771.192 1619.79 770.68 1619.98C770.175 1620.17 769.581 1620.26 768.899 1620.26ZM769.7 1618C770.32 1618 770.857 1617.87 771.311 1617.63C771.766 1617.38 772.115 1617.05 772.359 1616.64C772.609 1616.23 772.734 1615.79 772.734 1615.3V1613.76C772.638 1613.84 772.473 1613.91 772.24 1613.98C772.013 1614.05 771.757 1614.11 771.473 1614.16C771.189 1614.21 770.908 1614.26 770.629 1614.3C770.351 1614.34 770.109 1614.37 769.905 1614.4C769.445 1614.46 769.033 1614.57 768.669 1614.71C768.305 1614.85 768.018 1615.05 767.808 1615.3C767.598 1615.55 767.493 1615.88 767.493 1616.28C767.493 1616.84 767.7 1617.27 768.115 1617.56C768.53 1617.85 769.058 1618 769.7 1618ZM781.999 1602.55V1620H778.913V1602.55H781.999ZM788.256 1602.55V1620H785.171V1602.55H788.256ZM797.224 1620.26C795.912 1620.26 794.778 1619.98 793.824 1619.44C792.875 1618.89 792.145 1618.11 791.634 1617.1C791.122 1616.09 790.866 1614.9 790.866 1613.53C790.866 1612.18 791.122 1611 791.634 1609.99C792.151 1608.96 792.872 1608.17 793.798 1607.6C794.724 1607.03 795.812 1606.74 797.062 1606.74C797.869 1606.74 798.631 1606.87 799.347 1607.13C800.068 1607.39 800.705 1607.78 801.256 1608.32C801.813 1608.86 802.25 1609.55 802.568 1610.39C802.886 1611.22 803.045 1612.2 803.045 1613.35V1614.3H792.315V1612.22H800.088C800.082 1611.63 799.955 1611.1 799.705 1610.64C799.455 1610.18 799.105 1609.81 798.656 1609.54C798.213 1609.28 797.696 1609.14 797.105 1609.14C796.474 1609.14 795.92 1609.3 795.443 1609.6C794.966 1609.9 794.594 1610.3 794.327 1610.8C794.065 1611.28 793.932 1611.82 793.926 1612.41V1614.22C793.926 1614.98 794.065 1615.64 794.344 1616.18C794.622 1616.72 795.011 1617.14 795.511 1617.43C796.011 1617.71 796.597 1617.85 797.267 1617.85C797.716 1617.85 798.122 1617.79 798.486 1617.66C798.849 1617.53 799.165 1617.34 799.432 1617.09C799.699 1616.84 799.901 1616.53 800.037 1616.16L802.918 1616.49C802.736 1617.25 802.389 1617.91 801.878 1618.48C801.372 1619.05 800.724 1619.48 799.935 1619.8C799.145 1620.1 798.241 1620.26 797.224 1620.26ZM812.192 1606.91V1609.3H804.667V1606.91H812.192ZM806.525 1603.77H809.61V1616.06C809.61 1616.48 809.673 1616.8 809.798 1617.02C809.928 1617.23 810.099 1617.38 810.309 1617.46C810.519 1617.54 810.752 1617.58 811.008 1617.58C811.201 1617.58 811.377 1617.57 811.536 1617.54C811.701 1617.51 811.826 1617.48 811.911 1617.46L812.431 1619.87C812.266 1619.93 812.031 1619.99 811.724 1620.06C811.423 1620.13 811.053 1620.17 810.616 1620.18C809.843 1620.2 809.147 1620.09 808.528 1619.83C807.908 1619.57 807.417 1619.16 807.053 1618.62C806.695 1618.07 806.519 1617.39 806.525 1616.57V1603.77Z" fill="#8D8D97"/>
<path d="M163.982 238H170.31V229.038H173.557L178.338 238H185.241L179.808 228.028C182.685 226.724 184.347 224.155 184.347 220.537C184.347 215.155 180.678 211.818 174.797 211.818H163.982V238ZM170.31 224.053V216.919H173.429C176.267 216.919 177.788 218.108 177.788 220.537C177.788 222.966 176.267 224.053 173.429 224.053H170.31ZM196.61 238.371C201.762 238.371 205.15 235.878 205.865 232.017L200.125 231.851C199.64 233.155 198.361 233.858 196.725 233.858C194.321 233.858 192.838 232.26 192.838 229.857V229.69H205.929V228.131C205.929 221.662 201.992 218.108 196.418 218.108C190.486 218.108 186.676 222.173 186.676 228.259C186.676 234.548 190.435 238.371 196.61 238.371ZM192.838 226.06C192.928 224.104 194.475 222.621 196.546 222.621C198.604 222.621 200.087 224.053 200.113 226.06H192.838ZM216.294 238.281C219.26 238.281 221.024 236.632 221.817 234.817H222.009V238H228.196V211.818H221.945V221.726H221.817C221.075 219.923 219.362 218.108 216.268 218.108C212.165 218.108 208.445 221.266 208.445 228.195C208.445 234.881 211.96 238.281 216.294 238.281ZM218.467 233.411C216.153 233.411 214.862 231.352 214.862 228.182C214.862 225.024 216.141 222.991 218.467 222.991C220.756 222.991 222.085 224.973 222.085 228.182C222.085 231.365 220.743 233.411 218.467 233.411ZM241.328 238.371C246.48 238.371 249.868 235.878 250.584 232.017L244.844 231.851C244.358 233.155 243.08 233.858 241.444 233.858C239.04 233.858 237.557 232.26 237.557 229.857V229.69H250.648V228.131C250.648 221.662 246.711 218.108 241.137 218.108C235.205 218.108 231.395 222.173 231.395 228.259C231.395 234.548 235.154 238.371 241.328 238.371ZM237.557 226.06C237.647 224.104 239.194 222.621 241.265 222.621C243.323 222.621 244.806 224.053 244.831 226.06H237.557ZM265.001 218.364H261.256V217.264C261.256 216.139 261.716 215.449 263.173 215.449C263.761 215.449 264.477 215.577 264.938 215.717L265.935 211.141C265.193 210.936 263.493 210.591 261.767 210.591C257.766 210.591 255.017 212.815 255.017 217.366V218.364H252.371V222.966H255.017V238H261.256V222.966H265.001V218.364ZM268.009 238H274.26V218.364H268.009V238ZM271.141 216.075C272.918 216.075 274.35 214.733 274.35 213.084C274.35 211.435 272.918 210.105 271.141 210.105C269.377 210.105 267.932 211.435 267.932 213.084C267.932 214.733 269.377 216.075 271.141 216.075ZM284.491 226.801C284.504 224.564 285.808 223.234 287.789 223.234C289.771 223.234 290.947 224.538 290.934 226.712V238H297.185V225.484C297.198 221.061 294.501 218.108 290.371 218.108C287.469 218.108 285.271 219.578 284.401 221.969H284.184V218.364H278.239V238H284.491V226.801ZM310.235 238.371C315.387 238.371 318.775 235.878 319.49 232.017L313.75 231.851C313.265 233.155 311.986 233.858 310.35 233.858C307.946 233.858 306.463 232.26 306.463 229.857V229.69H319.554V228.131C319.554 221.662 315.617 218.108 310.043 218.108C304.111 218.108 300.301 222.173 300.301 228.259C300.301 234.548 304.06 238.371 310.235 238.371ZM306.463 226.06C306.553 224.104 308.1 222.621 310.171 222.621C312.229 222.621 313.712 224.053 313.738 226.06H306.463ZM341.565 218.364H338.024V213.659H331.773V218.364H329.178V222.966H331.773V232.516C331.734 236.491 334.317 238.486 338.727 238.281C340.236 238.205 341.322 237.898 341.923 237.719L340.977 233.206C340.709 233.27 340.082 233.398 339.609 233.398C338.599 233.398 338.024 232.989 338.024 231.825V222.966H341.565V218.364ZM351.428 226.801C351.441 224.564 352.771 223.234 354.752 223.234C356.759 223.234 357.923 224.526 357.91 226.712V238H364.161V225.484C364.174 221.036 361.464 218.108 357.335 218.108C354.394 218.108 352.323 219.553 351.441 221.969H351.224V211.818H345.177V238H351.428V226.801ZM377.243 238.371C382.395 238.371 385.782 235.878 386.498 232.017L380.758 231.851C380.272 233.155 378.994 233.858 377.358 233.858C374.954 233.858 373.471 232.26 373.471 229.857V229.69H386.562V228.131C386.562 221.662 382.625 218.108 377.051 218.108C371.119 218.108 367.309 222.173 367.309 228.259C367.309 234.548 371.068 238.371 377.243 238.371ZM373.471 226.06C373.561 224.104 375.108 222.621 377.179 222.621C379.237 222.621 380.72 224.053 380.745 226.06H373.471ZM416.538 218.364H409.954L406.323 231.889H406.119L402.501 218.364H395.917L402.641 238H409.8L416.538 218.364ZM423.943 238.332C426.679 238.332 428.571 237.271 429.645 235.264H429.798V238H435.679V224.653C435.679 220.499 431.984 218.108 426.985 218.108C421.706 218.108 418.714 220.767 418.216 224.347L423.981 224.551C424.25 223.298 425.285 222.531 426.934 222.531C428.468 222.531 429.44 223.273 429.44 224.589V224.653C429.44 225.855 428.136 226.111 424.787 226.405C420.811 226.737 417.487 228.207 417.487 232.554C417.487 236.44 420.184 238.332 423.943 238.332ZM425.873 234.241C424.429 234.241 423.406 233.551 423.406 232.247C423.406 230.982 424.403 230.214 426.18 229.946C427.343 229.78 428.775 229.524 429.478 229.153V231.02C429.478 232.938 427.868 234.241 425.873 234.241ZM445.752 211.818H439.501V238H445.752V211.818ZM462.401 229.524C462.401 231.812 460.943 233.091 459.089 233.091C457.172 233.091 455.996 231.787 455.983 229.652V218.364H449.732V230.879C449.744 235.315 452.442 238.256 456.482 238.256C459.422 238.256 461.608 236.747 462.477 234.344H462.682V238H468.639V218.364H462.401V229.524ZM481.797 238.371C486.949 238.371 490.337 235.878 491.053 232.017L485.313 231.851C484.827 233.155 483.549 233.858 481.912 233.858C479.509 233.858 478.026 232.26 478.026 229.857V229.69H491.117V228.131C491.117 221.662 487.179 218.108 481.605 218.108C475.674 218.108 471.864 222.173 471.864 228.259C471.864 234.548 475.623 238.371 481.797 238.371ZM478.026 226.06C478.115 224.104 479.662 222.621 481.733 222.621C483.792 222.621 485.275 224.053 485.3 226.06H478.026ZM518.945 238.371C525.119 238.371 528.865 234.293 528.865 228.246C528.865 222.186 525.119 218.108 518.945 218.108C512.77 218.108 509.024 222.186 509.024 228.246C509.024 234.293 512.77 238.371 518.945 238.371ZM518.983 233.653C516.669 233.653 515.391 231.455 515.391 228.207C515.391 224.947 516.669 222.736 518.983 222.736C521.22 222.736 522.499 224.947 522.499 228.207C522.499 231.455 521.22 233.653 518.983 233.653ZM543.228 218.364H539.482V217.264C539.482 216.139 539.942 215.449 541.4 215.449C541.988 215.449 542.704 215.577 543.164 215.717L544.161 211.141C543.42 210.936 541.719 210.591 539.994 210.591C535.992 210.591 533.244 212.815 533.244 217.366V218.364H530.597V222.966H533.244V238H539.482V222.966H543.228V218.364ZM563.136 238.371C568.659 238.371 572.085 235.162 572.251 230.304H566.409C566.179 232.388 564.926 233.526 563.213 233.526C561.014 233.526 559.582 231.672 559.582 228.182C559.582 224.717 561.027 222.864 563.213 222.864C565.002 222.864 566.166 224.078 566.409 226.085H572.251C572.11 221.253 568.582 218.108 563.123 218.108C556.949 218.108 553.216 222.224 553.216 228.246C553.216 234.241 556.923 238.371 563.136 238.371ZM575.45 238H581.702V227.338C581.702 224.999 583.364 223.426 585.601 223.426C586.342 223.426 587.455 223.554 588.055 223.759V218.325C587.531 218.185 586.879 218.095 586.304 218.095C584.156 218.095 582.443 219.348 581.727 221.943H581.523V218.364H575.45V238ZM598.762 238.371C603.914 238.371 607.302 235.878 608.018 232.017L602.278 231.851C601.792 233.155 600.513 233.858 598.877 233.858C596.474 233.858 594.991 232.26 594.991 229.857V229.69H608.082V228.131C608.082 221.662 604.144 218.108 598.57 218.108C592.638 218.108 588.829 222.173 588.829 228.259C588.829 234.548 592.587 238.371 598.762 238.371ZM594.991 226.06C595.08 224.104 596.627 222.621 598.698 222.621C600.756 222.621 602.239 224.053 602.265 226.06H594.991ZM616.81 238.332C619.546 238.332 621.438 237.271 622.512 235.264H622.665V238H628.546V224.653C628.546 220.499 624.851 218.108 619.853 218.108C614.573 218.108 611.581 220.767 611.083 224.347L616.848 224.551C617.117 223.298 618.152 222.531 619.801 222.531C621.336 222.531 622.307 223.273 622.307 224.589V224.653C622.307 225.855 621.003 226.111 617.654 226.405C613.678 226.737 610.354 228.207 610.354 232.554C610.354 236.44 613.051 238.332 616.81 238.332ZM618.74 234.241C617.296 234.241 616.273 233.551 616.273 232.247C616.273 230.982 617.27 230.214 619.047 229.946C620.211 229.78 621.642 229.524 622.346 229.153V231.02C622.346 232.938 620.735 234.241 618.74 234.241ZM643.452 218.364H639.911V213.659H633.659V218.364H631.064V222.966H633.659V232.516C633.621 236.491 636.203 238.486 640.614 238.281C642.123 238.205 643.209 237.898 643.81 237.719L642.864 233.206C642.596 233.27 641.969 233.398 641.496 233.398C640.486 233.398 639.911 232.989 639.911 231.825V222.966H643.452V218.364ZM646.642 238H652.893V218.364H646.642V238ZM649.774 216.075C651.551 216.075 652.983 214.733 652.983 213.084C652.983 211.435 651.551 210.105 649.774 210.105C648.01 210.105 646.565 211.435 646.565 213.084C646.565 214.733 648.01 216.075 649.774 216.075ZM666.038 238.371C672.213 238.371 675.959 234.293 675.959 228.246C675.959 222.186 672.213 218.108 666.038 218.108C659.864 218.108 656.118 222.186 656.118 228.246C656.118 234.293 659.864 238.371 666.038 238.371ZM666.077 233.653C663.763 233.653 662.484 231.455 662.484 228.207C662.484 224.947 663.763 222.736 666.077 222.736C668.314 222.736 669.592 224.947 669.592 228.207C669.592 231.455 668.314 233.653 666.077 233.653ZM685.413 226.801C685.425 224.564 686.729 223.234 688.711 223.234C690.692 223.234 691.869 224.538 691.856 226.712V238H698.107V225.484C698.12 221.061 695.423 218.108 691.293 218.108C688.391 218.108 686.192 219.578 685.323 221.969H685.106V218.364H679.161V238H685.413V226.801ZM715.248 238.332C717.983 238.332 719.875 237.271 720.949 235.264H721.103V238H726.983V224.653C726.983 220.499 723.289 218.108 718.29 218.108C713.01 218.108 710.019 220.767 709.52 224.347L715.286 224.551C715.554 223.298 716.59 222.531 718.239 222.531C719.773 222.531 720.745 223.273 720.745 224.589V224.653C720.745 225.855 719.441 226.111 716.091 226.405C712.115 226.737 708.792 228.207 708.792 232.554C708.792 236.44 711.489 238.332 715.248 238.332ZM717.178 234.241C715.733 234.241 714.711 233.551 714.711 232.247C714.711 230.982 715.708 230.214 717.485 229.946C718.648 229.78 720.08 229.524 720.783 229.153V231.02C720.783 232.938 719.172 234.241 717.178 234.241ZM737.057 226.801C737.07 224.564 738.374 223.234 740.355 223.234C742.337 223.234 743.513 224.538 743.5 226.712V238H749.752V225.484C749.765 221.061 747.067 218.108 742.938 218.108C740.036 218.108 737.837 219.578 736.968 221.969H736.75V218.364H730.806V238H737.057V226.801ZM760.794 238.281C763.76 238.281 765.524 236.632 766.317 234.817H766.509V238H772.696V211.818H766.445V221.726H766.317C765.575 219.923 763.862 218.108 760.768 218.108C756.665 218.108 752.945 221.266 752.945 228.195C752.945 234.881 756.46 238.281 760.794 238.281ZM762.967 233.411C760.653 233.411 759.362 231.352 759.362 228.182C759.362 225.024 760.641 222.991 762.967 222.991C765.256 222.991 766.585 224.973 766.585 228.182C766.585 231.365 765.243 233.411 762.967 233.411ZM801.527 224.359C801.195 220.473 798.012 218.108 792.694 218.108C787.375 218.108 783.988 220.422 784.013 224.359C783.988 227.376 785.918 229.32 789.843 230.048L793.269 230.7C794.892 231.02 795.634 231.531 795.659 232.401C795.634 233.385 794.534 234.037 792.936 234.037C791.159 234.037 789.958 233.27 789.689 231.838L783.515 231.991C783.962 235.878 787.299 238.371 792.911 238.371C798.165 238.371 801.988 235.75 802.013 231.71C801.988 228.847 800.096 227.146 796.184 226.392L792.4 225.676C790.738 225.344 790.201 224.756 790.213 224.001C790.201 223.004 791.364 222.391 792.809 222.391C794.458 222.391 795.608 223.273 795.787 224.513L801.527 224.359ZM811.342 226.801C811.355 224.564 812.685 223.234 814.666 223.234C816.673 223.234 817.837 224.526 817.824 226.712V238H824.075V225.484C824.088 221.036 821.378 218.108 817.249 218.108C814.308 218.108 812.237 219.553 811.355 221.969H811.138V211.818H805.091V238H811.342V226.801ZM833.513 238.332C836.249 238.332 838.141 237.271 839.215 235.264H839.368V238H845.249V224.653C845.249 220.499 841.554 218.108 836.556 218.108C831.276 218.108 828.284 220.767 827.786 224.347L833.551 224.551C833.82 223.298 834.855 222.531 836.505 222.531C838.039 222.531 839.01 223.273 839.01 224.589V224.653C839.01 225.855 837.706 226.111 834.357 226.405C830.381 226.737 827.057 228.207 827.057 232.554C827.057 236.44 829.755 238.332 833.513 238.332ZM835.444 234.241C833.999 234.241 832.976 233.551 832.976 232.247C832.976 230.982 833.973 230.214 835.75 229.946C836.914 229.78 838.346 229.524 839.049 229.153V231.02C839.049 232.938 837.438 234.241 835.444 234.241ZM849.071 238H855.323V227.338C855.323 224.999 856.985 223.426 859.222 223.426C859.963 223.426 861.076 223.554 861.676 223.759V218.325C861.152 218.185 860.5 218.095 859.925 218.095C857.777 218.095 856.064 219.348 855.348 221.943H855.144V218.364H849.071V238ZM864.224 238H870.475V218.364H864.224V238ZM867.356 216.075C869.133 216.075 870.565 214.733 870.565 213.084C870.565 211.435 869.133 210.105 867.356 210.105C865.592 210.105 864.147 211.435 864.147 213.084C864.147 214.733 865.592 216.075 867.356 216.075ZM880.706 226.801C880.718 224.564 882.022 223.234 884.004 223.234C885.985 223.234 887.162 224.538 887.149 226.712V238H893.4V225.484C893.413 221.061 890.716 218.108 886.586 218.108C883.684 218.108 881.485 219.578 880.616 221.969H880.399V218.364H874.454V238H880.706V226.801ZM906.424 245.773C912.343 245.773 916.383 243.075 916.383 238.077V218.364H910.157V221.726H909.978C909.224 219.923 907.511 218.108 904.417 218.108C900.313 218.108 896.593 221.266 896.593 228.156C896.593 234.83 900.134 237.732 904.442 237.732C907.332 237.732 909.262 236.389 910.004 234.574H910.221V238.026C910.221 240.531 908.687 241.439 906.59 241.439C904.583 241.439 903.381 240.672 903.049 239.457L897.13 239.79C897.59 243.229 900.825 245.773 906.424 245.773ZM906.616 233.18C904.302 233.18 903.011 231.301 903.011 228.156C903.011 225.024 904.289 222.991 906.616 222.991C908.904 222.991 910.234 224.973 910.234 228.156C910.234 231.314 908.891 233.18 906.616 233.18Z" fill="#B1DAFF"/>
<g clip-path="url(#clip0_2_1678)">
<path d="M416.746 87.3545H429.926L423.579 97.8234" fill="#006BCB"/>
<path d="M429.403 67.4121L420.695 80.9152H434.008L442.715 67.4121H429.403Z" fill="#006BCB"/>
<path d="M391 67.4116L401.427 50.5029H414.8L404.373 67.4116H391Z" fill="#006BCB"/>
<path d="M423.509 37L416.748 47.4356H403.617L410.136 37H423.509Z" fill="#006BCB"/>
<path d="M442.711 67.4118L423.506 37H410.133L429.4 67.4118H442.711Z" fill="#00B0FB"/>
<path d="M434.005 80.9147L414.799 50.5029H401.426L420.693 80.9147H434.005Z" fill="#00B0FB"/>
<path d="M423.579 97.8239L404.373 67.4121H391L410.267 97.8239H423.579Z" fill="#00B0FB"/>
<path d="M475.07 65.1719H489.086V69.25H475.07V80.9219H491.195V85H470.453V51.0156H490.68V55.0938H475.07V65.1719ZM505.094 59.9453C508.172 59.9453 510.539 60.7578 512.195 62.3828C513.867 63.9922 514.703 66.2969 514.703 69.2969V85H511.234L510.578 82.1172C508.172 84.3516 505.469 85.4688 502.469 85.4688C500 85.4688 498.039 84.8047 496.586 83.4766C495.133 82.1484 494.406 80.3672 494.406 78.1328C494.406 75.5391 495.469 73.5156 497.594 72.0625C499.719 70.6094 502.703 69.8828 506.547 69.8828H510.18V69.2031C510.055 65.6875 508.25 63.9297 504.766 63.9297C503.703 63.9297 502.508 64.0938 501.18 64.4219C499.852 64.7344 498.516 65.1641 497.172 65.7109L495.93 62.0547C497.367 61.3828 498.883 60.8672 500.477 60.5078C502.086 60.1328 503.625 59.9453 505.094 59.9453ZM506.828 73.3281C504.328 73.3281 502.383 73.7422 500.992 74.5703C499.602 75.3828 498.906 76.5234 498.906 77.9922C498.906 79.1172 499.289 79.9844 500.055 80.5938C500.82 81.1875 501.891 81.4844 503.266 81.4844C504.578 81.4844 505.859 81.2109 507.109 80.6641C508.359 80.1016 509.383 79.3516 510.18 78.4141V73.3281H506.828ZM529.398 59.8984C531.414 59.8828 533.75 60.4062 536.406 61.4688L535.211 65.2188C532.867 64.2969 530.93 63.8359 529.398 63.8359C527.992 63.8359 526.883 64.1094 526.07 64.6562C525.258 65.1875 524.852 65.9219 524.852 66.8594C524.852 67.75 525.211 68.4297 525.93 68.8984C526.648 69.3672 527.727 69.8203 529.164 70.2578C530.867 70.8047 532.219 71.3125 533.219 71.7812C534.234 72.2344 535.117 72.9688 535.867 73.9844C536.617 74.9844 536.992 76.3203 536.992 77.9922C536.992 80.2578 536.172 82.0625 534.531 83.4062C532.906 84.75 530.703 85.4219 527.922 85.4219C525.016 85.4219 522.211 84.8047 519.508 83.5703L520.914 79.6797C522.445 80.3203 523.727 80.7734 524.758 81.0391C525.805 81.3047 526.844 81.4375 527.875 81.4375C529.344 81.4375 530.477 81.1562 531.273 80.5938C532.07 80.0156 532.469 79.1797 532.469 78.0859C532.469 77.3828 532.242 76.8047 531.789 76.3516C531.352 75.8828 530.805 75.5234 530.148 75.2734C529.492 75.0078 528.555 74.6797 527.336 74.2891C525.867 73.8047 524.656 73.3281 523.703 72.8594C522.766 72.375 521.969 71.6562 521.312 70.7031C520.656 69.7344 520.328 68.4688 520.328 66.9062C520.328 64.7656 521.148 63.0625 522.789 61.7969C524.445 60.5312 526.648 59.8984 529.398 59.8984ZM545.477 73.4688C545.602 76.0312 546.289 77.9922 547.539 79.3516C548.789 80.7109 550.547 81.3906 552.812 81.3906C554.062 81.3906 555.266 81.2578 556.422 80.9922C557.594 80.7266 558.922 80.2734 560.406 79.6328L561.836 82.9844C560.133 83.8125 558.539 84.4219 557.055 84.8125C555.57 85.1875 554.078 85.375 552.578 85.375C548.859 85.375 545.977 84.2578 543.93 82.0234C541.883 79.7891 540.859 76.6562 540.859 72.625C540.859 68.5938 541.867 65.4688 543.883 63.25C545.898 61.0156 548.75 59.8984 552.438 59.8984C555.891 59.8984 558.461 60.9375 560.148 63.0156C561.852 65.0938 562.703 68.2422 562.703 72.4609V73.4688H545.477ZM558.039 69.6953C557.914 67.7734 557.367 66.3281 556.398 65.3594C555.445 64.375 554.125 63.8828 552.438 63.8828C548.688 63.8828 546.445 65.8203 545.711 69.6953H558.039ZM578.5 50.6406C581.219 50.625 584.031 51.2266 586.938 52.4453L585.789 56.6875C582.883 55.5625 580.422 55 578.406 55C576.359 55 574.734 55.3984 573.531 56.1953C572.328 56.9922 571.727 58.1016 571.727 59.5234C571.727 60.5547 571.938 61.4141 572.359 62.1016C572.797 62.7734 573.531 63.3828 574.562 63.9297C575.594 64.4766 577.031 65.0234 578.875 65.5703C582.172 66.5234 584.516 67.7812 585.906 69.3438C587.297 70.8906 587.992 72.9922 587.992 75.6484C587.992 78.6953 586.969 81.0859 584.922 82.8203C582.875 84.5547 580.062 85.4219 576.484 85.4219C573.406 85.4219 569.984 84.625 566.219 83.0312L567.602 78.8594C569.711 79.6875 571.391 80.2656 572.641 80.5938C573.891 80.9062 575.172 81.0625 576.484 81.0625C578.562 81.0625 580.203 80.5859 581.406 79.6328C582.609 78.6641 583.211 77.3516 583.211 75.6953C583.211 74.6328 582.984 73.75 582.531 73.0469C582.078 72.3438 581.297 71.7109 580.188 71.1484C579.094 70.5859 577.539 70.0312 575.523 69.4844C572.445 68.6562 570.242 67.5156 568.914 66.0625C567.586 64.6094 566.922 62.6484 566.922 60.1797C566.922 57.1641 567.945 54.8203 569.992 53.1484C572.055 51.4766 574.891 50.6406 578.5 50.6406ZM598.375 63.4844C600.656 61.0938 603.445 59.8984 606.742 59.8984C609.367 59.8984 611.375 60.6562 612.766 62.1719C614.156 63.6875 614.852 65.8906 614.852 68.7812V85H610.328V69.1094C610.328 67.2812 609.953 65.9531 609.203 65.125C608.453 64.2969 607.25 63.8828 605.594 63.8828C604.125 63.8828 602.75 64.2109 601.469 64.8672C600.188 65.5234 599.156 66.4297 598.375 67.5859V85H593.875V48.8125H598.375V63.4844ZM630.484 59.9453C633.562 59.9453 635.93 60.7578 637.586 62.3828C639.258 63.9922 640.094 66.2969 640.094 69.2969V85H636.625L635.969 82.1172C633.562 84.3516 630.859 85.4688 627.859 85.4688C625.391 85.4688 623.43 84.8047 621.977 83.4766C620.523 82.1484 619.797 80.3672 619.797 78.1328C619.797 75.5391 620.859 73.5156 622.984 72.0625C625.109 70.6094 628.094 69.8828 631.938 69.8828H635.57V69.2031C635.445 65.6875 633.641 63.9297 630.156 63.9297C629.094 63.9297 627.898 64.0938 626.57 64.4219C625.242 64.7344 623.906 65.1641 622.562 65.7109L621.32 62.0547C622.758 61.3828 624.273 60.8672 625.867 60.5078C627.477 60.1328 629.016 59.9453 630.484 59.9453ZM632.219 73.3281C629.719 73.3281 627.773 73.7422 626.383 74.5703C624.992 75.3828 624.297 76.5234 624.297 77.9922C624.297 79.1172 624.68 79.9844 625.445 80.5938C626.211 81.1875 627.281 81.4844 628.656 81.4844C629.969 81.4844 631.25 81.2109 632.5 80.6641C633.75 80.1016 634.773 79.3516 635.57 78.4141V73.3281H632.219ZM651.531 63.7891C652.391 62.5078 653.398 61.5391 654.555 60.8828C655.711 60.2266 656.977 59.8984 658.352 59.8984C659.273 59.8984 660.344 60.0703 661.562 60.4141L660.742 64.8438C659.18 64.5312 658.125 64.3672 657.578 64.3516C656.203 64.3516 655.062 64.6094 654.156 65.125C653.266 65.6406 652.5 66.4766 651.859 67.6328V85H647.359V60.3203H650.969L651.531 63.7891ZM667.633 73.4688C667.758 76.0312 668.445 77.9922 669.695 79.3516C670.945 80.7109 672.703 81.3906 674.969 81.3906C676.219 81.3906 677.422 81.2578 678.578 80.9922C679.75 80.7266 681.078 80.2734 682.562 79.6328L683.992 82.9844C682.289 83.8125 680.695 84.4219 679.211 84.8125C677.727 85.1875 676.234 85.375 674.734 85.375C671.016 85.375 668.133 84.2578 666.086 82.0234C664.039 79.7891 663.016 76.6562 663.016 72.625C663.016 68.5938 664.023 65.4688 666.039 63.25C668.055 61.0156 670.906 59.8984 674.594 59.8984C678.047 59.8984 680.617 60.9375 682.305 63.0156C684.008 65.0938 684.859 68.2422 684.859 72.4609V73.4688H667.633ZM680.195 69.6953C680.07 67.7734 679.523 66.3281 678.555 65.3594C677.602 64.375 676.281 63.8828 674.594 63.8828C670.844 63.8828 668.602 65.8203 667.867 69.6953H680.195Z" fill="#00B0FB"/>
</g>
<defs>
<filter id="filter0_f_2_1678" x="-387.695" y="-615.692" width="1855.24" height="1855.24" filterUnits="userSpaceOnUse" color-interpolation-filters="sRGB">
<feFlood flood-opacity="0" result="BackgroundImageFix"/>
<feBlend mode="normal" in="SourceGraphic" in2="BackgroundImageFix" result="shape"/>
<feGaussianBlur stdDeviation="100" result="effect1_foregroundBlur_2_1678"/>
</filter>
<filter id="filter1_b_2_1678" x="-100" y="36" width="1280" height="1525" filterUnits="userSpaceOnUse" color-interpolation-filters="sRGB">
<feFlood flood-opacity="0" result="BackgroundImageFix"/>
<feGaussianBlur in="BackgroundImage" stdDeviation="50"/>
<feComposite in2="SourceAlpha" operator="in" result="effect1_backgroundBlur_2_1678"/>
<feBlend mode="normal" in="SourceGraphic" in2="effect1_backgroundBlur_2_1678" result="shape"/>
</filter>
<radialGradient id="paint0_angular_2_1678" cx="0" cy="0" r="1" gradientUnits="userSpaceOnUse" gradientTransform="translate(539.927 311.928) rotate(78.0946) scale(964.503)">
<stop offset="0.117708" stop-color="#8093FF" stop-opacity="0.6"/>
<stop offset="0.555208" stop-color="#3AFFA1"/>
<stop offset="1" stop-color="#6966FF"/>
</radialGradient>
<linearGradient id="paint1_linear_2_1678" x1="540" y1="136" x2="540" y2="2410" gradientUnits="userSpaceOnUse">
<stop stop-color="white"/>
<stop offset="0.572917" stop-color="white" stop-opacity="0"/>
</linearGradient>
<clipPath id="clip0_2_1678">
<rect width="341" height="67" fill="white" transform="translate(369 31)"/>
</clipPath>
</defs>
</svg>
