<svg width="878" height="498" viewBox="0 0 878 498" fill="none" xmlns="http://www.w3.org/2000/svg">
<path d="M870.05 0.771544L852.567 53.7086C835.084 106.646 799.73 212.089 727.315 265.015C654.901 317.942 545.037 317.92 451.263 340.764C357.488 363.609 279.414 408.889 206.999 461.815C134.584 514.742 67.3844 575.278 33.8127 605.349L0.240839 635.42L192.367 906.944L231.21 884.089C270.053 861.233 348.128 815.953 425.757 770.637C503.775 725.752 581.404 680.436 659.535 634.76C737.666 589.085 815.238 544.164 892.868 498.848C970.497 453.532 1048.57 408.252 1087.41 385.396L1126.26 362.541L870.05 0.771544Z" fill="url(#paint0_radial_352_6438)" fill-opacity="0.2"/>
<defs>
<radialGradient id="paint0_radial_352_6438" cx="0" cy="0" r="1" gradientUnits="userSpaceOnUse" gradientTransform="translate(550.075 310.164) rotate(21.7231) scale(385.831 432.763)">
<stop stop-color="#D5C1FF"/>
<stop offset="1" stop-color="#D5C1FF" stop-opacity="0"/>
</radialGradient>
</defs>
</svg>
