<svg width="19" height="17" viewBox="0 0 19 17" fill="none" xmlns="http://www.w3.org/2000/svg">
<path d="M1.40625 7.40145L1.154 6.69514C0.871056 6.79619 0.675723 7.05634 0.657614 7.35624C0.639504 7.65614 0.802114 7.93791 1.07084 8.07227L1.40625 7.40145ZM17.5967 1.61914L18.3365 1.74244C18.3802 1.48017 18.2818 1.21437 18.0779 1.0438C17.8739 0.873236 17.5949 0.823408 17.3445 0.912834L17.5967 1.61914ZM15.2838 15.4967L14.8678 16.1207C15.0795 16.2619 15.3484 16.286 15.582 16.1849C15.8155 16.0837 15.9818 15.871 16.0236 15.62L15.2838 15.4967ZM8.34503 10.8708L7.75938 10.4023C7.62806 10.5665 7.57166 10.7782 7.60391 10.9859C7.63616 11.1936 7.7541 11.3783 7.929 11.4949L8.34503 10.8708ZM12.9709 5.08853L13.5565 5.55705C13.7875 5.26829 13.7736 4.85426 13.5237 4.58169C13.2738 4.30912 12.8625 4.25937 12.5549 4.46449L12.9709 5.08853ZM6.0321 9.71437L5.69669 10.3852C5.93742 10.5056 6.22419 10.4877 6.44813 10.3384L6.0321 9.71437ZM1.6585 8.10776L17.849 2.32545L17.3445 0.912834L1.154 6.69514L1.6585 8.10776ZM16.8569 1.49584L14.544 15.3734L16.0236 15.62L18.3365 1.74244L16.8569 1.49584ZM15.6998 14.8726L8.76105 10.2468L7.929 11.4949L14.8678 16.1207L15.6998 14.8726ZM8.93068 11.3394L13.5565 5.55705L12.3852 4.62L7.75938 10.4023L8.93068 11.3394ZM12.5549 4.46449L5.61608 9.09034L6.44813 10.3384L13.3869 5.71256L12.5549 4.46449ZM6.36751 9.04355L1.74166 6.73063L1.07084 8.07227L5.69669 10.3852L6.36751 9.04355Z" fill="#478EFD"/>
</svg>
