<svg width="78" height="78" viewBox="0 0 78 78" fill="none" xmlns="http://www.w3.org/2000/svg">
<path fill-rule="evenodd" clip-rule="evenodd" d="M58.5 58.5C60.2949 58.5 61.75 57.0449 61.75 55.25C61.75 53.4551 60.2949 52 58.5 52L45.5 52C43.7051 52 42.25 50.5449 42.25 48.75L42.25 29.25C42.25 27.4551 43.7051 26 45.5 26L58.5 26C60.2949 26 61.75 24.5449 61.75 22.75C61.75 20.9551 60.2949 19.5 58.5 19.5L45.5 19.5C40.1152 19.5 35.75 23.8652 35.75 29.25L35.75 35.75L22.75 35.75C20.9551 35.75 19.5 37.2051 19.5 39C19.5 40.7949 20.9551 42.25 22.75 42.25L35.75 42.25L35.75 48.75C35.75 54.1348 40.1152 58.5 45.5 58.5L58.5 58.5Z" fill="#B1DAFF"/>
<path fill-rule="evenodd" clip-rule="evenodd" d="M52 55.25C52 49.8652 56.3652 45.5 61.75 45.5C67.1348 45.5 71.5 49.8652 71.5 55.25C71.5 60.6348 67.1348 65 61.75 65C56.3652 65 52 60.6348 52 55.25ZM6.5 39C6.5 33.6152 10.8652 29.25 16.25 29.25C21.6348 29.25 26 33.6152 26 39C26 44.3848 21.6348 48.75 16.25 48.75C10.8652 48.75 6.5 44.3848 6.5 39ZM61.75 13C56.3652 13 52 17.3652 52 22.75C52 28.1348 56.3652 32.5 61.75 32.5C67.1348 32.5 71.5 28.1348 71.5 22.75C71.5 17.3652 67.1348 13 61.75 13Z" fill="#478EFD"/>
</svg>
