<svg width="78" height="78" viewBox="0 0 78 78" fill="none" xmlns="http://www.w3.org/2000/svg">
<path d="M19.5 23.4C19.5 19.7597 19.5 17.9395 20.2085 16.5491C20.8316 15.326 21.826 14.3316 23.0491 13.7085C24.4395 13 26.2597 13 29.9 13H61.1C64.7403 13 66.5605 13 67.9509 13.7085C69.174 14.3316 70.1684 15.326 70.7915 16.5491C71.5 17.9395 71.5 19.7597 71.5 23.4V41.6C71.5 45.2403 71.5 47.0605 70.7915 48.4509C70.1684 49.674 69.174 50.6684 67.9509 51.2915C66.5605 52 64.7403 52 61.1 52H29.9C26.2597 52 24.4395 52 23.0491 51.2915C21.826 50.6684 20.8316 49.674 20.2085 48.4509C19.5 47.0605 19.5 45.2403 19.5 41.6V23.4Z" fill="#B1DAFF"/>
<path fill-rule="evenodd" clip-rule="evenodd" d="M7.20846 29.5491C6.75157 30.4457 6.58933 31.5212 6.53172 33.1482C6.5006 34.0271 6.48505 34.4665 6.65744 34.8266C6.80569 35.1363 7.06584 35.4059 7.37009 35.565C7.72389 35.75 8.18333 35.75 9.10219 35.75H55.8978C56.8167 35.75 57.2761 35.75 57.6299 35.565C57.9342 35.4059 58.1943 35.1363 58.3426 34.8266C58.515 34.4665 58.4994 34.0271 58.4683 33.1482C58.4107 31.5212 58.2484 30.4457 57.7915 29.5491C57.1684 28.326 56.174 27.3316 54.9509 26.7085C53.5605 26 51.7403 26 48.1 26H16.9C13.2597 26 11.4395 26 10.0491 26.7085C8.82601 27.3316 7.83163 28.326 7.20846 29.5491ZM58.5 44.85C58.5 43.9399 58.5 43.4849 58.3229 43.1373C58.1671 42.8315 57.9185 42.5829 57.6127 42.4271C57.2651 42.25 56.8101 42.25 55.9 42.25H9.1C8.18991 42.25 7.73487 42.25 7.38727 42.4271C7.0815 42.5829 6.83291 42.8315 6.67711 43.1373C6.5 43.4849 6.5 43.9399 6.5 44.85V54.6C6.5 58.2403 6.5 60.0605 7.20846 61.4509C7.83163 62.674 8.82601 63.6684 10.0491 64.2915C11.4395 65 13.2597 65 16.9 65H48.1C51.7403 65 53.5605 65 54.9509 64.2915C56.174 63.6684 57.1684 62.674 57.7915 61.4509C58.5 60.0605 58.5 58.2403 58.5 54.6V44.85Z" fill="#478EFD"/>
</svg>
