<svg width="78" height="78" viewBox="0 0 78 78" fill="none" xmlns="http://www.w3.org/2000/svg">
<path d="M13 9.75C11.2051 9.75 9.75 11.2051 9.75 13C9.75 14.7949 11.2051 16.25 13 16.25H14.1713C15.7205 16.25 17.0543 17.3435 17.3582 18.8626L22.2906 43.5248C22.8982 46.563 25.5659 48.75 28.6644 48.75H57.543C60.5666 48.75 63.1909 46.6651 63.8747 43.7198L68.1095 25.4774C68.819 22.421 66.4985 19.5 63.3608 19.5H24.1144L23.7319 17.5879C22.8205 13.0305 18.8189 9.75 14.1713 9.75H13Z" fill="#B1DAFF"/>
<path fill-rule="evenodd" clip-rule="evenodd" d="M35.75 61.75C35.75 65.3399 32.8398 68.25 29.25 68.25C25.6601 68.25 22.75 65.3399 22.75 61.75C22.75 58.1601 25.6601 55.25 29.25 55.25C32.8398 55.25 35.75 58.1601 35.75 61.75ZM61.75 61.75C61.75 65.3399 58.8398 68.25 55.25 68.25C51.6601 68.25 48.75 65.3399 48.75 61.75C48.75 58.1601 51.6601 55.25 55.25 55.25C58.8398 55.25 61.75 58.1601 61.75 61.75Z" fill="#478EFD"/>
</svg>
